<svg width="18" height="18" viewBox="0 0 18 18" fill="none" xmlns="http://www.w3.org/2000/svg">
<path d="M6.80165 1.30451C7.76953 -0.434836 10.2305 -0.434836 11.1984 1.30451V1.30451C11.718 2.23838 12.7524 2.74563 13.7934 2.5771V2.5771C15.7323 2.26321 17.2667 4.22246 16.5347 6.0775V6.0775C16.1417 7.07349 16.3972 8.21327 17.1757 8.93699V8.93699C18.6255 10.2849 18.0779 12.7281 16.1973 13.3019V13.3019C15.1876 13.61 14.4717 14.5241 14.4015 15.595V15.595C14.2705 17.5898 12.0533 18.6771 10.4402 17.5376V17.5376C9.57404 16.9258 8.42596 16.9258 7.55984 17.5376V17.5376C5.9467 18.6771 3.72948 17.5898 3.59855 15.595V15.595C3.52825 14.5241 2.81244 13.61 1.8027 13.3019V13.3019C-0.077929 12.7281 -0.625537 10.2849 0.824343 8.93699V8.93699C1.6028 8.21327 1.85827 7.07349 1.46527 6.0775V6.0775C0.73331 4.22246 2.26768 2.26321 4.20657 2.5771V2.5771C5.24759 2.74563 6.28198 2.23838 6.80165 1.30451V1.30451Z" fill="#80FFE8"/>
<path d="M6.15625 5.15002H9.68234C9.94758 5.15002 10.2128 5.25924 10.4 5.44647L10.8525 5.89893C11.0397 6.08615 11.1489 6.35139 11.1489 6.61663V7.64637H10.1504V6.61663L9.68234 6.14856H6.15625V7.64637H5.15772V6.14856C5.15772 5.60249 5.59458 5.15002 6.15625 5.15002ZM5.15772 8.14564H9.65113C9.04265 8.6137 8.6526 9.3314 8.6526 10.1427C8.6526 10.3143 8.6682 10.486 8.6994 10.642H6.15625V10.8916V11.1412V12.1398H9.65113C10.0256 12.4362 10.4937 12.6235 11.0085 12.6391C10.8369 12.9355 10.5093 13.1383 10.1504 13.1383H6.15625C5.59458 13.1383 5.15772 12.7015 5.15772 12.1398V11.1412H4.65845C4.37761 11.1412 4.15918 10.9228 4.15918 10.642V9.14417C4.15918 8.5981 4.59604 8.14564 5.15772 8.14564ZM11.1489 11.4065C11.8354 11.4065 12.3971 10.8448 12.3971 10.1583C12.3971 9.45622 11.8354 8.91014 11.1489 8.91014C10.4468 8.91014 9.90077 9.45622 9.90077 10.1583C9.90077 10.8448 10.4468 11.4065 11.1489 11.4065ZM11.1489 12.1554C10.0412 12.1554 9.15187 11.2505 9.15187 10.1583C9.15187 9.05056 10.0412 8.16124 11.1489 8.16124C12.2411 8.16124 13.146 9.05056 13.146 10.1583C13.146 10.564 13.0056 10.954 12.7872 11.2817L14.0353 12.5142C14.1758 12.6547 14.1758 12.8887 14.0353 13.0447C13.8793 13.1851 13.6453 13.1851 13.5049 13.0447L12.2567 11.7965C11.9446 12.015 11.5546 12.1554 11.1489 12.1554Z" fill="#0E131A"/>
</svg>
