<svg width="18" height="18" viewBox="0 0 18 18" fill="none" xmlns="http://www.w3.org/2000/svg">
<path d="M6.80165 1.30451C7.76953 -0.434836 10.2305 -0.434836 11.1984 1.30451V1.30451C11.718 2.23838 12.7524 2.74563 13.7934 2.5771V2.5771C15.7323 2.26321 17.2667 4.22246 16.5347 6.0775V6.0775C16.1417 7.07349 16.3972 8.21327 17.1757 8.93699V8.93699C18.6255 10.2849 18.0779 12.7281 16.1973 13.3019V13.3019C15.1876 13.61 14.4717 14.5241 14.4015 15.595V15.595C14.2705 17.5898 12.0533 18.6771 10.4402 17.5376V17.5376C9.57404 16.9258 8.42596 16.9258 7.55984 17.5376V17.5376C5.9467 18.6771 3.72948 17.5898 3.59855 15.595V15.595C3.52825 14.5241 2.81244 13.61 1.8027 13.3019V13.3019C-0.077929 12.7281 -0.625537 10.2849 0.824343 8.93699V8.93699C1.6028 8.21327 1.85827 7.07349 1.46527 6.0775V6.0775C0.73331 4.22246 2.26768 2.26321 4.20657 2.5771V2.5771C5.24759 2.74563 6.28198 2.23838 6.80165 1.30451V1.30451Z" fill="#80FFE8"/>
<path d="M6.92805 5.82326C7.10366 5.9813 7.10366 6.24472 6.94561 6.42033L5.68122 7.82521C5.61098 7.89545 5.50561 7.94813 5.38268 7.94813C5.27732 7.96569 5.15439 7.91301 5.08415 7.82521L4.38171 7.12277C4.2061 6.96472 4.2061 6.7013 4.38171 6.54326C4.53976 6.36765 4.80317 6.36765 4.96122 6.54326L5.36512 6.9296L6.33098 5.84082C6.48902 5.68277 6.75244 5.66521 6.92805 5.82326ZM6.92805 8.63301C7.10366 8.79106 7.10366 9.05448 6.94561 9.23009L5.68122 10.635C5.61098 10.7052 5.50561 10.7579 5.38268 10.7579C5.27732 10.7755 5.15439 10.7228 5.08415 10.635L4.38171 9.93252C4.2061 9.77448 4.2061 9.51106 4.38171 9.35301C4.53976 9.1774 4.80317 9.1774 4.96122 9.35301L5.36512 9.73935L6.33098 8.65057C6.48902 8.49252 6.75244 8.47496 6.92805 8.63301ZM8.19244 6.82423C8.19244 6.52569 8.43829 6.26228 8.75439 6.26228H12.688C12.9866 6.26228 13.25 6.52569 13.25 6.82423C13.25 7.14033 12.9866 7.38618 12.688 7.38618H8.75439C8.43829 7.38618 8.19244 7.14033 8.19244 6.82423ZM8.19244 9.63399C8.19244 9.33545 8.43829 9.07204 8.75439 9.07204H12.688C12.9866 9.07204 13.25 9.33545 13.25 9.63399C13.25 9.95009 12.9866 10.1959 12.688 10.1959H8.75439C8.43829 10.1959 8.19244 9.95009 8.19244 9.63399ZM7.06854 12.4437C7.06854 12.1452 7.31439 11.8818 7.63049 11.8818H12.688C12.9866 11.8818 13.25 12.1452 13.25 12.4437C13.25 12.7598 12.9866 13.0057 12.688 13.0057H7.63049C7.31439 13.0057 7.06854 12.7598 7.06854 12.4437ZM5.10171 13.2867C4.62756 13.2867 4.25878 12.9179 4.25878 12.4437C4.25878 11.9872 4.62756 11.6008 5.10171 11.6008C5.55829 11.6008 5.94463 11.9872 5.94463 12.4437C5.94463 12.9179 5.55829 13.2867 5.10171 13.2867Z" fill="#0E131A"/>
</svg>
