<svg width="22" height="22" viewBox="0 0 22 22" fill="none" xmlns="http://www.w3.org/2000/svg">
<path d="M15.7812 7.14062C15.7812 7.14062 15.7812 7.14062 15.7578 7.14062C14.8672 6.71875 13.9297 6.4375 12.9688 6.27344C12.9453 6.25 12.9219 6.27344 12.9219 6.27344C12.7812 6.50781 12.6641 6.76562 12.5703 7C11.5156 6.83594 10.4609 6.83594 9.40625 7C9.3125 6.76562 9.19531 6.50781 9.05469 6.27344C9.05469 6.27344 9.03125 6.25 9.00781 6.27344C8.04688 6.4375 7.10938 6.71875 6.21875 7.14062C6.19531 7.14062 6.19531 7.14062 6.19531 7.14062C4.41406 9.8125 3.92188 12.4141 4.15625 14.9922C4.15625 14.9922 4.15625 15.0156 4.17969 15.0156C5.21094 15.7891 6.38281 16.375 7.625 16.75C7.625 16.7734 7.64844 16.75 7.67188 16.75C7.92969 16.375 8.16406 16 8.375 15.6016C8.375 15.5781 8.375 15.5547 8.35156 15.5312C7.97656 15.3906 7.60156 15.2266 7.27344 15.0156C7.25 15.0156 7.22656 14.9688 7.27344 14.9453C7.34375 14.8984 7.41406 14.8516 7.48438 14.7812C7.48438 14.7812 7.50781 14.7812 7.53125 14.7812C9.78125 15.8125 12.2188 15.8125 14.4453 14.7812C14.4688 14.7812 14.4688 14.7812 14.4922 14.7812C14.5625 14.8516 14.6328 14.8984 14.7031 14.9453C14.7266 14.9688 14.7266 15.0156 14.7031 15.0156C14.3516 15.2266 14 15.3906 13.625 15.5312C13.6016 15.5547 13.6016 15.5781 13.6016 15.6016C13.8125 16 14.0469 16.375 14.3047 16.75C14.3281 16.75 14.3281 16.7734 14.3516 16.75C15.5938 16.375 16.7656 15.7891 17.7969 15.0156C17.8203 15.0156 17.8203 14.9922 17.8203 14.9922C18.1016 12.0156 17.3281 9.4375 15.7812 7.14062ZM8.70312 13.4219C8.02344 13.4219 7.46094 12.7891 7.46094 12.0391C7.46094 11.2656 8.02344 10.6562 8.70312 10.6562C9.40625 10.6562 9.94531 11.2656 9.94531 12.0391C9.94531 12.7891 9.38281 13.4219 8.70312 13.4219ZM13.2734 13.4219C12.5938 13.4219 12.0547 12.7891 12.0547 12.0391C12.0547 11.2656 12.5938 10.6562 13.2734 10.6562C13.9766 10.6562 14.5391 11.2656 14.5156 12.0391C14.5156 12.7891 13.9766 13.4219 13.2734 13.4219Z" fill="#EFFFFD"/>
</svg>

