<svg width="22" height="22" viewBox="0 0 22 22" fill="none" xmlns="http://www.w3.org/2000/svg">
<path d="M8.86719 14.8281C8.86719 14.875 8.82031 14.8984 8.75 14.8984C8.67969 14.9219 8.63281 14.875 8.63281 14.8281C8.63281 14.7812 8.67969 14.7344 8.75 14.7344C8.82031 14.7344 8.86719 14.7812 8.86719 14.8281ZM8.14062 14.7109C8.14062 14.7578 8.1875 14.8281 8.25781 14.8281C8.30469 14.8516 8.375 14.8281 8.39844 14.7812C8.39844 14.7344 8.375 14.6875 8.30469 14.6641C8.23438 14.6406 8.16406 14.6641 8.14062 14.7109ZM9.19531 14.6875C9.125 14.6875 9.07812 14.7344 9.07812 14.8047C9.07812 14.8516 9.14844 14.875 9.21875 14.8516C9.28906 14.8281 9.33594 14.8047 9.3125 14.7578C9.3125 14.7109 9.24219 14.6641 9.19531 14.6875ZM10.7188 5.6875C7.48438 5.6875 5 8.17188 5 11.4062C5 14.0078 6.61719 16.2344 8.96094 17.0312C9.26562 17.0781 9.35938 16.8906 9.35938 16.75C9.35938 16.5859 9.35938 15.7891 9.35938 15.2969C9.35938 15.2969 7.71875 15.6484 7.36719 14.5938C7.36719 14.5938 7.10938 13.9141 6.73438 13.75C6.73438 13.75 6.19531 13.375 6.75781 13.375C6.75781 13.375 7.34375 13.4219 7.67188 13.9844C8.1875 14.8984 9.03125 14.6406 9.38281 14.4766C9.42969 14.1016 9.57031 13.8438 9.75781 13.6797C8.44531 13.5391 7.10938 13.3516 7.10938 11.1016C7.10938 10.4453 7.29688 10.1406 7.67188 9.71875C7.60156 9.55469 7.41406 8.94531 7.74219 8.125C8.21094 7.98438 9.35938 8.75781 9.35938 8.75781C9.82812 8.61719 10.3203 8.57031 10.8125 8.57031C11.3281 8.57031 11.8203 8.61719 12.2891 8.75781C12.2891 8.75781 13.4141 7.96094 13.9062 8.125C14.2344 8.94531 14.0234 9.55469 13.9766 9.71875C14.3516 10.1406 14.5859 10.4453 14.5859 11.1016C14.5859 13.3516 13.2031 13.5391 11.8906 13.6797C12.1016 13.8672 12.2891 14.2188 12.2891 14.7812C12.2891 15.5547 12.2656 16.5391 12.2656 16.7266C12.2656 16.8906 12.3828 17.0781 12.6875 17.0078C15.0312 16.2344 16.625 14.0078 16.625 11.4062C16.625 8.17188 13.9766 5.6875 10.7188 5.6875ZM7.27344 13.7734C7.22656 13.7969 7.25 13.8672 7.27344 13.9141C7.32031 13.9375 7.36719 13.9609 7.41406 13.9375C7.4375 13.9141 7.4375 13.8438 7.39062 13.7969C7.34375 13.7734 7.29688 13.75 7.27344 13.7734ZM7.01562 13.5859C6.99219 13.6328 7.01562 13.6562 7.0625 13.6797C7.10938 13.7031 7.15625 13.7031 7.17969 13.6562C7.17969 13.6328 7.15625 13.6094 7.10938 13.5859C7.0625 13.5625 7.03906 13.5625 7.01562 13.5859ZM7.76562 14.4297C7.74219 14.4531 7.74219 14.5234 7.8125 14.5703C7.85938 14.6172 7.92969 14.6406 7.95312 14.5938C7.97656 14.5703 7.97656 14.5 7.92969 14.4531C7.88281 14.4062 7.8125 14.3828 7.76562 14.4297ZM7.50781 14.0781C7.46094 14.1016 7.46094 14.1719 7.50781 14.2188C7.55469 14.2656 7.60156 14.2891 7.64844 14.2656C7.67188 14.2422 7.67188 14.1719 7.64844 14.125C7.60156 14.0781 7.55469 14.0547 7.50781 14.0781Z" fill="#EFFFFD"/>
</svg>

