<svg width="22" height="22" viewBox="0 0 22 22" fill="none" xmlns="http://www.w3.org/2000/svg">
<path d="M11 5.5C14.3047 5.5 17 8.19531 17 11.5C17 14.8281 14.3047 17.5 11 17.5C7.67188 17.5 5 14.8281 5 11.5C5 8.19531 7.67188 5.5 11 5.5ZM11 16.75C11.375 16.75 11.9375 16.4219 12.4297 15.4141C12.6641 14.9453 12.875 14.3828 12.9922 13.75H8.98438C9.10156 14.3828 9.3125 14.9453 9.54688 15.4141C10.0391 16.4219 10.6016 16.75 11 16.75ZM8.84375 13H13.1328C13.2031 12.5312 13.25 12.0391 13.25 11.5C13.25 10.9844 13.2031 10.4922 13.1328 10H8.84375C8.77344 10.4922 8.75 10.9844 8.75 11.5C8.75 12.0391 8.77344 12.5312 8.84375 13ZM12.9922 9.25C12.875 8.61719 12.6641 8.07812 12.4297 7.60938C11.9375 6.60156 11.375 6.25 11 6.25C10.6016 6.25 10.0391 6.60156 9.54688 7.60938C9.3125 8.07812 9.10156 8.61719 8.98438 9.25H12.9922ZM13.8828 10C13.9531 10.4922 14 10.9844 14 11.5C14 12.0391 13.9531 12.5312 13.8828 13H16.0156C16.1562 12.5312 16.25 12.0391 16.25 11.5C16.25 10.9844 16.1562 10.4922 16.0156 10H13.8828ZM12.6641 6.53125C13.1562 7.1875 13.5547 8.14844 13.7656 9.25H15.7344C15.125 7.98438 14.0234 7 12.6641 6.53125ZM9.3125 6.53125C7.95312 7 6.85156 7.98438 6.24219 9.25H8.21094C8.42188 8.14844 8.82031 7.1875 9.3125 6.53125ZM5.75 11.5C5.75 12.0391 5.82031 12.5312 5.96094 13H8.09375C8.02344 12.5312 8 12.0391 8 11.5C8 10.9844 8.02344 10.4922 8.09375 10H5.96094C5.82031 10.4922 5.75 10.9844 5.75 11.5ZM15.7344 13.75H13.7656C13.5547 14.875 13.1562 15.8125 12.6641 16.4922C14.0234 16.0234 15.125 15.0391 15.7344 13.75ZM8.21094 13.75H6.24219C6.85156 15.0391 7.95312 16.0234 9.3125 16.4922C8.82031 15.8125 8.42188 14.875 8.21094 13.75Z" fill="#EFFFFD"/>
</svg>
