<svg width="22" height="22" viewBox="0 0 22 22" fill="none" xmlns="http://www.w3.org/2000/svg">
<path d="M7.71875 7.25781C5.375 7.25781 3.5 9.15625 3.5 11.5C3.5 13.8672 5.375 15.7656 7.71875 15.7656C10.0625 15.7656 11.9609 13.8672 11.9609 11.5C11.9609 9.15625 10.0625 7.25781 7.71875 7.25781ZM14.4688 7.49219C13.2969 7.49219 12.3594 9.29688 12.3594 11.5234C12.3594 13.7266 13.2969 15.5312 14.4688 15.5312C15.6406 15.5312 16.6016 13.7266 16.6016 11.5234C16.6016 9.29688 15.6406 7.49219 14.4688 7.49219ZM17.75 7.91406C17.3281 7.91406 17 9.53125 17 11.5234C17 13.4922 17.3281 15.1094 17.75 15.1094C18.1484 15.1094 18.5 13.4922 18.5 11.5C18.5 9.53125 18.1484 7.91406 17.75 7.91406Z" fill="#EFFFFD"/>
</svg>
