<svg width="18" height="18" viewBox="0 0 18 18" fill="none" xmlns="http://www.w3.org/2000/svg">
<path d="M6.80165 1.30451C7.76953 -0.434836 10.2305 -0.434836 11.1984 1.30451V1.30451C11.718 2.23838 12.7524 2.74563 13.7934 2.5771V2.5771C15.7323 2.26321 17.2667 4.22246 16.5347 6.0775V6.0775C16.1417 7.07349 16.3972 8.21327 17.1757 8.93699V8.93699C18.6255 10.2849 18.0779 12.7281 16.1973 13.3019V13.3019C15.1876 13.61 14.4717 14.5241 14.4015 15.595V15.595C14.2705 17.5898 12.0533 18.6771 10.4402 17.5376V17.5376C9.57404 16.9258 8.42596 16.9258 7.55984 17.5376V17.5376C5.9467 18.6771 3.72948 17.5898 3.59855 15.595V15.595C3.52825 14.5241 2.81244 13.61 1.8027 13.3019V13.3019C-0.077929 12.7281 -0.625537 10.2849 0.824343 8.93699V8.93699C1.6028 8.21327 1.85827 7.07349 1.46527 6.0775V6.0775C0.73331 4.22246 2.26768 2.26321 4.20657 2.5771V2.5771C5.24759 2.74563 6.28198 2.23838 6.80165 1.30451V1.30451Z" fill="#80FFE8"/>
<path d="M11.578 7.55481C11.578 8.00404 11.2267 8.33608 10.7973 8.33608C10.3484 8.33608 10.0166 8.00404 10.0166 7.55481C10.0166 7.12511 10.3484 6.77354 10.7973 6.77354C11.2267 6.77354 11.578 7.12511 11.578 7.55481ZM4.06365 10.3674C3.9075 10.3674 3.75136 10.2892 3.67329 10.133C3.5757 9.99627 3.5757 9.82049 3.67329 9.66423L4.68821 7.94545C4.94195 7.51575 5.41037 7.2423 5.89832 7.2423H7.49878C7.55733 7.16418 7.59636 7.10558 7.65492 7.02746C9.25538 4.66412 11.6365 4.586 13.0418 4.85944C13.276 4.8985 13.4517 5.07429 13.4907 5.30867C13.764 6.71495 13.6859 9.09782 11.3243 10.6994C11.2462 10.758 11.1681 10.7971 11.1096 10.8557V12.4573C11.1096 12.9456 10.8363 13.4143 10.4069 13.6682L8.68936 14.6839C8.53322 14.762 8.35756 14.7815 8.22093 14.6839C8.06479 14.6058 7.9672 14.4495 7.9672 14.2737V12.3987C7.81106 12.4768 7.65492 12.5354 7.51829 12.594C7.3036 12.6916 7.03035 12.6331 6.85469 12.4573L5.85928 11.4807C5.68362 11.2854 5.62507 11.0315 5.74217 10.7971C5.78121 10.6799 5.83976 10.5236 5.91784 10.3674H4.06365ZM12.6124 5.73836C11.3828 5.56258 9.64573 5.7579 8.41611 7.55481C7.83058 8.43374 7.0889 10.0549 6.67903 10.9729L7.36215 11.6565C8.27949 11.2658 9.91898 10.5236 10.7973 9.91815C12.5929 8.70718 12.7881 6.96886 12.6124 5.73836Z" fill="#0E131A"/>
</svg>
