<svg width="22" height="22" viewBox="0 0 22 22" fill="none" xmlns="http://www.w3.org/2000/svg">
<path d="M10.8125 5.6875C7.60156 5.6875 5 8.3125 5 11.5C5 14.7109 7.60156 17.3125 10.8125 17.3125C14 17.3125 16.625 14.7109 16.625 11.5C16.625 8.3125 14 5.6875 10.8125 5.6875ZM13.4844 9.64844C13.4141 10.5625 13.0391 12.8125 12.8281 13.8203C12.7578 14.2656 12.5938 14.4062 12.4297 14.4297C12.1016 14.4531 11.8438 14.1953 11.5156 13.9844C11 13.6562 10.7188 13.4453 10.2266 13.1172C9.64062 12.7422 10.0156 12.5312 10.3438 12.2031C10.4375 12.1094 11.9141 10.75 11.9375 10.6328C11.9609 10.6094 11.9609 10.5625 11.9141 10.5156C11.8906 10.4922 11.8438 10.5156 11.7969 10.5156C11.75 10.5156 10.9297 11.0547 9.35938 12.1328C9.125 12.2969 8.91406 12.3672 8.72656 12.3672C8.51562 12.3672 8.11719 12.25 7.8125 12.1562C7.46094 12.0391 7.15625 11.9688 7.17969 11.7812C7.20312 11.6641 7.34375 11.5703 7.625 11.4531C9.3125 10.7031 10.4375 10.2344 11 10C12.6172 9.32031 12.9688 9.20312 13.1797 9.20312C13.2266 9.20312 13.3438 9.20312 13.4141 9.27344C13.4375 9.29688 13.4844 9.36719 13.4844 9.41406C13.5078 9.50781 13.5078 9.57812 13.4844 9.64844Z" fill="#EFFFFD"/>
</svg>
