<svg width="18" height="18" viewBox="0 0 18 18" fill="none" xmlns="http://www.w3.org/2000/svg">
<path d="M6.80165 1.30451C7.76953 -0.434836 10.2305 -0.434836 11.1984 1.30451V1.30451C11.718 2.23838 12.7524 2.74563 13.7934 2.5771V2.5771C15.7323 2.26321 17.2667 4.22246 16.5347 6.0775V6.0775C16.1417 7.07349 16.3972 8.21327 17.1757 8.93699V8.93699C18.6255 10.2849 18.0779 12.7281 16.1973 13.3019V13.3019C15.1876 13.61 14.4717 14.5241 14.4015 15.595V15.595C14.2705 17.5898 12.0533 18.6771 10.4402 17.5376V17.5376C9.57404 16.9258 8.42596 16.9258 7.55984 17.5376V17.5376C5.9467 18.6771 3.72948 17.5898 3.59855 15.595V15.595C3.52825 14.5241 2.81244 13.61 1.8027 13.3019V13.3019C-0.077929 12.7281 -0.625537 10.2849 0.824343 8.93699V8.93699C1.6028 8.21327 1.85827 7.07349 1.46527 6.0775V6.0775C0.73331 4.22246 2.26768 2.26321 4.20657 2.5771V2.5771C5.24759 2.74563 6.28198 2.23838 6.80165 1.30451V1.30451Z" fill="#80FFE8"/>
<path d="M8.4245 6.71162V7.55607L8.95228 8.08385C8.82913 7.46811 9.02265 6.85236 9.46247 6.41254C9.81433 6.0431 10.2893 5.86717 10.7819 5.86717H10.7995L9.77914 6.86995L10.043 8.4533L11.6264 8.71719L12.6468 7.7144C12.6468 8.207 12.4532 8.6996 12.0838 9.05145C11.9255 9.22738 11.7319 9.35053 11.5384 9.43849C11.556 9.45608 11.5912 9.49127 11.6264 9.50886L12.1717 10.0542C12.3477 9.94868 12.5236 9.80794 12.6819 9.6496C13.3505 8.99867 13.6319 7.99589 13.4032 7.08107C13.3505 6.85236 13.1921 6.69403 12.981 6.62366C12.7523 6.57088 12.5236 6.64125 12.3829 6.78199L11.3625 7.81996L10.7819 7.732L10.694 7.15144L11.7319 6.13106C11.8727 5.99032 11.943 5.76161 11.8727 5.5505C11.8199 5.3218 11.644 5.16346 11.4329 5.11068C10.5004 4.88198 9.53284 5.14587 8.86432 5.83198C8.6708 6.00791 8.53006 6.20143 8.40691 6.41254H8.4245V6.71162ZM6.36615 12.9922C6.13745 13.2209 5.73282 13.2209 5.50411 12.9922C5.39855 12.8867 5.32818 12.7459 5.32818 12.5876C5.32818 12.4293 5.39855 12.2885 5.50411 12.183L7.87913 9.79034L7.28098 9.19219L4.92355 11.5496C4.64207 11.8311 4.50133 12.2005 4.50133 12.5524C4.48373 12.9218 4.64207 13.3089 4.92355 13.5728C5.18744 13.8543 5.55689 13.995 5.92634 13.995C6.29578 13.995 6.66523 13.8543 6.94671 13.5728L8.72358 11.8135C8.54765 11.532 8.44209 11.2154 8.44209 10.8811L6.36615 12.9922ZM13.3153 11.9718L11.2569 9.91349C10.8347 9.50886 10.2366 9.4209 9.74396 9.6672L7.86153 7.78478V6.69403L5.62726 5.00513L4.50133 6.13106L6.19023 8.36534H7.28098L9.1458 10.2302C8.9171 10.7228 8.98747 11.3385 9.3921 11.7431L11.4504 13.8015C11.7143 14.0478 12.119 14.0478 12.3829 13.8015L13.3153 12.8691C13.5616 12.6404 13.5616 12.2357 13.3153 11.9718Z" fill="#0E131A"/>
</svg>
