<svg width="22" height="22" viewBox="0 0 22 22" fill="none" xmlns="http://www.w3.org/2000/svg">
<path d="M15.7578 9.0625C15.7578 9.17969 15.7578 9.27344 15.7578 9.39062C15.7578 12.6484 13.2969 16.375 8.77344 16.375C7.36719 16.375 6.07812 15.9766 5 15.2734C5.1875 15.2969 5.375 15.3203 5.58594 15.3203C6.73438 15.3203 7.78906 14.9219 8.63281 14.2656C7.55469 14.2422 6.64062 13.5391 6.33594 12.5547C6.5 12.5781 6.64062 12.6016 6.80469 12.6016C7.01562 12.6016 7.25 12.5547 7.4375 12.5078C6.3125 12.2734 5.46875 11.2891 5.46875 10.0938V10.0703C5.79688 10.2578 6.19531 10.3516 6.59375 10.375C5.91406 9.92969 5.49219 9.17969 5.49219 8.33594C5.49219 7.86719 5.60938 7.44531 5.82031 7.09375C7.03906 8.57031 8.86719 9.55469 10.9062 9.67188C10.8594 9.48438 10.8359 9.29688 10.8359 9.10938C10.8359 7.75 11.9375 6.64844 13.2969 6.64844C14 6.64844 14.6328 6.92969 15.1016 7.42188C15.6406 7.30469 16.1797 7.09375 16.6484 6.8125C16.4609 7.39844 16.0859 7.86719 15.5703 8.17188C16.0625 8.125 16.5547 7.98438 16.9766 7.79688C16.6484 8.28906 16.2266 8.71094 15.7578 9.0625Z" fill="#EFFFFD"/>
</svg>
