<svg width="1024" height="658" viewBox="0 0 1024 658" fill="none" xmlns="http://www.w3.org/2000/svg">
<g opacity="0.7">
<path opacity="0.11" d="M304.661 506.858C305.206 506.504 305.361 505.777 305.007 505.232C304.654 504.688 303.926 504.533 303.382 504.886C302.838 505.24 302.683 505.967 303.036 506.512C303.389 507.056 304.117 507.211 304.661 506.858Z" fill="#EFFFFD"/>
<path d="M311.376 510.199C311.784 509.934 311.9 509.389 311.635 508.981C311.37 508.572 310.825 508.456 310.417 508.721C310.009 508.986 309.892 509.532 310.157 509.94C310.422 510.348 310.968 510.464 311.376 510.199Z" fill="#EFFFFD"/>
<path d="M320.923 489.305C321.331 489.04 321.447 488.495 321.182 488.087C320.917 487.678 320.372 487.562 319.964 487.827C319.555 488.092 319.439 488.638 319.704 489.046C319.969 489.454 320.515 489.57 320.923 489.305Z" fill="#EFFFFD"/>
<path d="M278.408 515.492C278.816 515.227 278.932 514.682 278.668 514.273C278.403 513.865 277.857 513.749 277.449 514.014C277.041 514.279 276.925 514.825 277.19 515.233C277.454 515.641 278 515.757 278.408 515.492Z" fill="#EFFFFD"/>
<path opacity="0.11" d="M261.694 543.142C262.238 542.789 262.393 542.061 262.04 541.517C261.686 540.972 260.959 540.817 260.414 541.171C259.87 541.524 259.715 542.252 260.068 542.796C260.422 543.34 261.149 543.495 261.694 543.142Z" fill="#EFFFFD"/>
<path d="M245.303 538.376C245.575 538.2 245.653 537.836 245.476 537.564C245.3 537.292 244.936 537.215 244.664 537.391C244.392 537.568 244.315 537.931 244.491 538.203C244.668 538.475 245.031 538.553 245.303 538.376Z" fill="#EFFFFD"/>
<path d="M315.646 527.03C315.918 526.853 315.995 526.49 315.819 526.218C315.643 525.946 315.279 525.868 315.007 526.045C314.735 526.221 314.658 526.585 314.834 526.857C315.011 527.129 315.374 527.206 315.646 527.03Z" fill="#EFFFFD"/>
<path d="M423.046 457.337C423.317 457.16 423.395 456.797 423.218 456.525C423.042 456.253 422.678 456.176 422.406 456.352C422.135 456.529 422.057 456.892 422.234 457.164C422.41 457.436 422.774 457.513 423.046 457.337Z" fill="#EFFFFD"/>
<path d="M459.474 395.887C459.746 395.71 459.824 395.347 459.647 395.075C459.471 394.803 459.107 394.726 458.835 394.902C458.563 395.079 458.486 395.442 458.662 395.714C458.839 395.986 459.202 396.063 459.474 395.887Z" fill="#EFFFFD"/>
<path d="M502.029 419.38C502.301 419.203 502.378 418.84 502.202 418.568C502.025 418.296 501.662 418.219 501.39 418.395C501.118 418.572 501.041 418.935 501.217 419.207C501.393 419.479 501.757 419.556 502.029 419.38Z" fill="#EFFFFD"/>
<path d="M143.607 621.174C143.879 620.997 143.956 620.634 143.78 620.362C143.603 620.09 143.24 620.012 142.968 620.189C142.696 620.365 142.619 620.729 142.795 621.001C142.972 621.273 143.335 621.35 143.607 621.174Z" fill="#EFFFFD"/>
<path opacity="0.11" d="M118.959 599.365C119.231 599.189 119.308 598.825 119.131 598.553C118.955 598.281 118.591 598.204 118.32 598.38C118.048 598.557 117.97 598.92 118.147 599.192C118.323 599.464 118.687 599.542 118.959 599.365Z" fill="#EFFFFD"/>
<path opacity="0.11" d="M105.131 624.442C105.403 624.266 105.481 623.902 105.304 623.63C105.128 623.358 104.764 623.281 104.492 623.457C104.22 623.634 104.143 623.997 104.32 624.269C104.496 624.541 104.86 624.619 105.131 624.442Z" fill="#EFFFFD"/>
<path opacity="0.11" d="M140.569 643.451C140.841 643.274 140.918 642.911 140.742 642.639C140.565 642.367 140.202 642.289 139.93 642.466C139.658 642.642 139.581 643.006 139.757 643.278C139.934 643.55 140.297 643.627 140.569 643.451Z" fill="#EFFFFD"/>
<path opacity="0.11" d="M245.021 547.658C245.293 547.481 245.37 547.118 245.194 546.846C245.017 546.574 244.654 546.497 244.382 546.673C244.11 546.85 244.033 547.213 244.209 547.485C244.386 547.757 244.749 547.834 245.021 547.658Z" fill="#EFFFFD"/>
<path opacity="0.11" d="M326.178 545.404C326.45 545.228 326.528 544.864 326.351 544.592C326.175 544.32 325.811 544.243 325.539 544.419C325.267 544.596 325.19 544.959 325.366 545.231C325.543 545.503 325.906 545.581 326.178 545.404Z" fill="#EFFFFD"/>
<path opacity="0.11" d="M417.56 479.096C417.832 478.92 417.91 478.556 417.733 478.284C417.557 478.012 417.193 477.935 416.921 478.111C416.649 478.288 416.572 478.651 416.748 478.923C416.925 479.195 417.288 479.273 417.56 479.096Z" fill="#EFFFFD"/>
<path opacity="0.3" d="M158.279 594.151C158.551 593.974 158.628 593.611 158.452 593.339C158.275 593.067 157.912 592.989 157.64 593.166C157.368 593.342 157.291 593.706 157.467 593.978C157.644 594.25 158.007 594.327 158.279 594.151Z" fill="#EFFFFD"/>
<path d="M254.318 494.018C254.59 493.842 254.667 493.478 254.491 493.206C254.314 492.934 253.951 492.857 253.679 493.034C253.407 493.21 253.33 493.574 253.506 493.845C253.683 494.117 254.046 494.195 254.318 494.018Z" fill="#EFFFFD"/>
<path d="M329.545 443.801C329.817 443.625 329.894 443.261 329.717 442.989C329.541 442.718 329.177 442.64 328.905 442.817C328.634 442.993 328.556 443.357 328.733 443.629C328.909 443.901 329.273 443.978 329.545 443.801Z" fill="#EFFFFD"/>
<path d="M250.232 561.08C250.504 560.904 250.581 560.54 250.405 560.268C250.228 559.996 249.865 559.919 249.593 560.095C249.321 560.272 249.244 560.635 249.42 560.907C249.597 561.179 249.96 561.257 250.232 561.08Z" fill="#EFFFFD"/>
<path opacity="0.3" d="M215.748 583.461C216.02 583.284 216.097 582.921 215.921 582.649C215.744 582.377 215.381 582.299 215.109 582.476C214.837 582.652 214.759 583.016 214.936 583.288C215.112 583.56 215.476 583.637 215.748 583.461Z" fill="#EFFFFD"/>
<path opacity="0.11" d="M155.537 579.129C155.809 578.953 155.886 578.589 155.71 578.317C155.533 578.045 155.17 577.968 154.898 578.144C154.626 578.321 154.548 578.684 154.725 578.956C154.901 579.228 155.265 579.305 155.537 579.129Z" fill="#EFFFFD"/>
<path opacity="0.3" d="M270.865 500.087C271.137 499.91 271.214 499.547 271.038 499.275C270.861 499.003 270.498 498.925 270.226 499.102C269.954 499.278 269.876 499.642 270.053 499.914C270.229 500.186 270.593 500.263 270.865 500.087Z" fill="#EFFFFD"/>
<path opacity="0.3" d="M264.685 565.006C264.957 564.829 265.035 564.466 264.858 564.194C264.682 563.922 264.318 563.844 264.046 564.021C263.774 564.197 263.697 564.561 263.873 564.833C264.05 565.105 264.413 565.182 264.685 565.006Z" fill="#EFFFFD"/>
<path opacity="0.3" d="M208.271 608.614C208.543 608.438 208.62 608.074 208.444 607.802C208.267 607.53 207.904 607.453 207.632 607.629C207.36 607.806 207.283 608.169 207.459 608.441C207.636 608.713 207.999 608.791 208.271 608.614Z" fill="#EFFFFD"/>
<path opacity="0.3" d="M172.568 584.881C172.84 584.704 172.917 584.341 172.741 584.069C172.564 583.797 172.201 583.719 171.929 583.896C171.657 584.072 171.58 584.436 171.756 584.708C171.933 584.98 172.296 585.057 172.568 584.881Z" fill="#EFFFFD"/>
<path opacity="0.3" d="M478.021 384.553C478.293 384.376 478.37 384.013 478.194 383.741C478.018 383.469 477.654 383.392 477.382 383.568C477.11 383.745 477.033 384.108 477.209 384.38C477.386 384.652 477.749 384.729 478.021 384.553Z" fill="#EFFFFD"/>
<path opacity="0.11" d="M385.599 415.824C385.871 415.647 385.949 415.284 385.772 415.012C385.596 414.74 385.232 414.662 384.96 414.839C384.688 415.015 384.611 415.379 384.787 415.651C384.964 415.923 385.327 416 385.599 415.824Z" fill="#EFFFFD"/>
<path opacity="0.11" d="M478.467 414.365C478.739 414.188 478.817 413.825 478.64 413.553C478.464 413.281 478.1 413.203 477.828 413.38C477.556 413.556 477.479 413.92 477.655 414.192C477.832 414.464 478.196 414.541 478.467 414.365Z" fill="#EFFFFD"/>
<path opacity="0.3" d="M356.708 499.684C357.253 499.331 357.408 498.604 357.054 498.059C356.701 497.515 355.973 497.36 355.429 497.713C354.885 498.066 354.73 498.794 355.083 499.338C355.436 499.883 356.164 500.038 356.708 499.684Z" fill="#EFFFFD"/>
<path opacity="0.11" d="M376.186 466.043C376.73 465.69 376.885 464.962 376.532 464.418C376.179 463.874 375.451 463.719 374.907 464.072C374.362 464.425 374.207 465.153 374.561 465.697C374.914 466.241 375.641 466.396 376.186 466.043Z" fill="#EFFFFD"/>
<path d="M364.751 448.961C365.159 448.696 365.275 448.151 365.01 447.742C364.745 447.334 364.2 447.218 363.792 447.483C363.384 447.748 363.267 448.293 363.532 448.702C363.797 449.11 364.343 449.226 364.751 448.961Z" fill="#EFFFFD"/>
<path d="M364.33 522.746C364.738 522.481 364.854 521.936 364.589 521.528C364.325 521.119 363.779 521.003 363.371 521.268C362.963 521.533 362.847 522.079 363.111 522.487C363.376 522.895 363.922 523.011 364.33 522.746Z" fill="#EFFFFD"/>
<path d="M534.275 426.459C534.684 426.195 534.8 425.649 534.535 425.241C534.27 424.833 533.724 424.717 533.316 424.981C532.908 425.246 532.792 425.792 533.057 426.2C533.322 426.608 533.867 426.724 534.275 426.459Z" fill="#EFFFFD"/>
<path d="M209.119 625.567C209.527 625.302 209.643 624.756 209.379 624.348C209.114 623.94 208.568 623.824 208.16 624.089C207.752 624.354 207.636 624.899 207.9 625.307C208.165 625.716 208.711 625.832 209.119 625.567Z" fill="#EFFFFD"/>
<path d="M136.251 656.755C136.659 656.49 136.775 655.945 136.51 655.537C136.245 655.129 135.7 655.012 135.292 655.277C134.884 655.542 134.767 656.088 135.032 656.496C135.297 656.904 135.843 657.02 136.251 656.755Z" fill="#EFFFFD"/>
<path d="M115.088 642.485C115.496 642.22 115.612 641.675 115.347 641.267C115.082 640.858 114.537 640.742 114.129 641.007C113.721 641.272 113.604 641.818 113.869 642.226C114.134 642.634 114.68 642.75 115.088 642.485Z" fill="#EFFFFD"/>
<path d="M347.502 474.159C347.91 473.894 348.026 473.348 347.761 472.94C347.496 472.532 346.951 472.416 346.543 472.681C346.135 472.946 346.018 473.491 346.283 473.899C346.548 474.307 347.094 474.424 347.502 474.159Z" fill="#EFFFFD"/>
<path d="M285.439 566.24C285.848 565.975 285.964 565.43 285.699 565.022C285.434 564.613 284.888 564.497 284.48 564.762C284.072 565.027 283.956 565.573 284.221 565.981C284.486 566.389 285.031 566.505 285.439 566.24Z" fill="#EFFFFD"/>
<path d="M423.33 506.861C423.738 506.596 423.854 506.051 423.589 505.642C423.325 505.234 422.779 505.118 422.371 505.383C421.963 505.648 421.847 506.193 422.111 506.602C422.376 507.01 422.922 507.126 423.33 506.861Z" fill="#EFFFFD"/>
<path d="M532.134 388.642C532.542 388.377 532.658 387.831 532.393 387.423C532.128 387.015 531.583 386.899 531.175 387.164C530.766 387.428 530.65 387.974 530.915 388.382C531.18 388.79 531.726 388.907 532.134 388.642Z" fill="#EFFFFD"/>
<path d="M526.376 353.874C526.784 353.609 526.9 353.064 526.635 352.656C526.37 352.247 525.825 352.131 525.417 352.396C525.009 352.661 524.892 353.207 525.157 353.615C525.422 354.023 525.968 354.139 526.376 353.874Z" fill="#EFFFFD"/>
<path opacity="0.3" d="M405.716 423.077C406.26 422.724 406.415 421.997 406.062 421.452C405.709 420.908 404.981 420.753 404.437 421.106C403.892 421.459 403.738 422.187 404.091 422.731C404.444 423.276 405.172 423.431 405.716 423.077Z" fill="#EFFFFD"/>
<path d="M383.013 388.102C383.557 387.749 383.712 387.021 383.359 386.477C383.006 385.932 382.278 385.777 381.734 386.131C381.189 386.484 381.034 387.212 381.388 387.756C381.741 388.3 382.469 388.455 383.013 388.102Z" fill="#EFFFFD"/>
<path d="M438.119 417.451C438.527 417.186 438.643 416.641 438.379 416.233C438.114 415.824 437.568 415.708 437.16 415.973C436.752 416.238 436.636 416.784 436.901 417.192C437.165 417.6 437.711 417.716 438.119 417.451Z" fill="#EFFFFD"/>
<path opacity="0.3" d="M449.544 382.733C450.089 382.38 450.243 381.652 449.89 381.108C449.537 380.564 448.809 380.409 448.265 380.762C447.721 381.115 447.566 381.843 447.919 382.387C448.272 382.932 449 383.087 449.544 382.733Z" fill="#EFFFFD"/>
<path opacity="0.3" d="M521.014 386.06C521.558 385.707 521.713 384.979 521.36 384.435C521.007 383.891 520.279 383.736 519.735 384.089C519.19 384.442 519.035 385.17 519.389 385.714C519.742 386.258 520.47 386.413 521.014 386.06Z" fill="#EFFFFD"/>
<path opacity="0.3" d="M464.013 424.449C464.557 424.096 464.712 423.368 464.359 422.824C464.006 422.279 463.278 422.124 462.734 422.478C462.189 422.831 462.034 423.559 462.388 424.103C462.741 424.647 463.469 424.802 464.013 424.449Z" fill="#EFFFFD"/>
<path opacity="0.3" d="M186.677 616.328C187.221 615.975 187.376 615.247 187.023 614.703C186.67 614.159 185.942 614.004 185.398 614.357C184.853 614.71 184.698 615.438 185.052 615.982C185.405 616.527 186.133 616.681 186.677 616.328Z" fill="#EFFFFD"/>
<path opacity="0.3" d="M129.185 615.13C129.729 614.777 129.884 614.05 129.531 613.505C129.178 612.961 128.45 612.806 127.906 613.159C127.361 613.512 127.206 614.24 127.56 614.784C127.913 615.329 128.64 615.484 129.185 615.13Z" fill="#EFFFFD"/>
<path opacity="0.11" d="M491.224 384.389C491.768 384.036 491.923 383.308 491.57 382.764C491.217 382.219 490.489 382.064 489.945 382.418C489.4 382.771 489.245 383.499 489.599 384.043C489.952 384.587 490.68 384.742 491.224 384.389Z" fill="#EFFFFD"/>
<path opacity="0.3" d="M188.763 552.665C189.307 552.312 189.462 551.584 189.109 551.04C188.756 550.496 188.028 550.341 187.484 550.694C186.939 551.047 186.784 551.775 187.138 552.319C187.491 552.864 188.219 553.019 188.763 552.665Z" fill="#EFFFFD"/>
<path opacity="0.11" d="M169.069 551.445C169.613 551.091 169.768 550.364 169.415 549.819C169.061 549.275 168.334 549.12 167.789 549.473C167.245 549.827 167.09 550.554 167.443 551.099C167.797 551.643 168.524 551.798 169.069 551.445Z" fill="#EFFFFD"/>
<path opacity="0.3" d="M185.591 585.53C186.135 585.177 186.29 584.449 185.937 583.905C185.584 583.36 184.856 583.205 184.312 583.559C183.767 583.912 183.613 584.639 183.966 585.184C184.319 585.728 185.047 585.883 185.591 585.53Z" fill="#EFFFFD"/>
<path d="M216.056 565.057C216.464 564.792 216.58 564.247 216.315 563.839C216.05 563.43 215.505 563.314 215.096 563.579C214.688 563.844 214.572 564.39 214.837 564.798C215.102 565.206 215.647 565.322 216.056 565.057Z" fill="#EFFFFD"/>
<path opacity="0.11" d="M377.396 245.859C377.94 245.506 378.095 244.778 377.742 244.234C377.389 243.69 376.661 243.535 376.116 243.888C375.572 244.241 375.417 244.969 375.771 245.513C376.124 246.058 376.851 246.213 377.396 245.859Z" fill="#EFFFFD"/>
<path d="M384.111 249.202C384.519 248.937 384.636 248.391 384.371 247.983C384.106 247.575 383.56 247.459 383.152 247.724C382.744 247.989 382.628 248.534 382.893 248.942C383.158 249.35 383.703 249.467 384.111 249.202Z" fill="#EFFFFD"/>
<path d="M393.658 228.307C394.066 228.042 394.182 227.496 393.918 227.088C393.653 226.68 393.107 226.564 392.699 226.829C392.291 227.094 392.175 227.639 392.44 228.048C392.704 228.456 393.25 228.572 393.658 228.307Z" fill="#EFFFFD"/>
<path d="M351.142 254.494C351.55 254.229 351.666 253.684 351.401 253.276C351.136 252.867 350.591 252.751 350.182 253.016C349.774 253.281 349.658 253.827 349.923 254.235C350.188 254.643 350.733 254.759 351.142 254.494Z" fill="#EFFFFD"/>
<path opacity="0.11" d="M334.427 282.143C334.971 281.79 335.126 281.062 334.773 280.518C334.42 279.974 333.692 279.819 333.148 280.172C332.603 280.525 332.448 281.253 332.802 281.797C333.155 282.342 333.883 282.496 334.427 282.143Z" fill="#EFFFFD"/>
<path d="M318.037 277.379C318.309 277.203 318.386 276.839 318.21 276.567C318.033 276.295 317.67 276.218 317.398 276.395C317.126 276.571 317.048 276.935 317.225 277.206C317.401 277.478 317.765 277.556 318.037 277.379Z" fill="#EFFFFD"/>
<path d="M388.381 266.032C388.652 265.856 388.73 265.492 388.553 265.22C388.377 264.949 388.013 264.871 387.741 265.048C387.469 265.224 387.392 265.588 387.569 265.86C387.745 266.132 388.109 266.209 388.381 266.032Z" fill="#EFFFFD"/>
<path d="M495.779 196.34C496.051 196.163 496.128 195.8 495.952 195.528C495.775 195.256 495.412 195.179 495.14 195.355C494.868 195.532 494.791 195.895 494.967 196.167C495.143 196.439 495.507 196.516 495.779 196.34Z" fill="#EFFFFD"/>
<path d="M532.209 134.889C532.481 134.713 532.558 134.349 532.382 134.078C532.205 133.806 531.841 133.728 531.57 133.905C531.298 134.081 531.22 134.445 531.397 134.717C531.573 134.989 531.937 135.066 532.209 134.889Z" fill="#EFFFFD"/>
<path d="M574.763 158.385C575.035 158.208 575.113 157.845 574.936 157.573C574.76 157.301 574.396 157.223 574.124 157.4C573.852 157.576 573.775 157.94 573.951 158.212C574.128 158.484 574.491 158.561 574.763 158.385Z" fill="#EFFFFD"/>
<path d="M216.342 360.175C216.614 359.999 216.692 359.635 216.515 359.363C216.339 359.092 215.975 359.014 215.703 359.191C215.431 359.367 215.354 359.731 215.53 360.003C215.707 360.275 216.07 360.352 216.342 360.175Z" fill="#EFFFFD"/>
<path opacity="0.11" d="M191.693 338.367C191.965 338.191 192.042 337.827 191.866 337.555C191.689 337.283 191.326 337.206 191.054 337.382C190.782 337.559 190.705 337.922 190.881 338.194C191.058 338.466 191.421 338.544 191.693 338.367Z" fill="#EFFFFD"/>
<path opacity="0.11" d="M177.865 363.445C178.137 363.268 178.214 362.905 178.038 362.633C177.861 362.361 177.498 362.283 177.226 362.46C176.954 362.636 176.876 363 177.053 363.272C177.229 363.544 177.593 363.621 177.865 363.445Z" fill="#EFFFFD"/>
<path opacity="0.11" d="M213.302 382.453C213.574 382.277 213.652 381.913 213.475 381.642C213.299 381.37 212.935 381.292 212.663 381.469C212.391 381.645 212.314 382.009 212.49 382.281C212.667 382.553 213.03 382.63 213.302 382.453Z" fill="#EFFFFD"/>
<path opacity="0.11" d="M317.756 286.66C318.027 286.483 318.105 286.12 317.928 285.848C317.752 285.576 317.388 285.498 317.116 285.675C316.844 285.851 316.767 286.215 316.944 286.487C317.12 286.759 317.484 286.836 317.756 286.66Z" fill="#EFFFFD"/>
<path opacity="0.11" d="M398.912 284.406C399.184 284.23 399.261 283.866 399.085 283.595C398.908 283.323 398.545 283.245 398.273 283.422C398.001 283.598 397.923 283.962 398.1 284.234C398.276 284.506 398.64 284.583 398.912 284.406Z" fill="#EFFFFD"/>
<path opacity="0.11" d="M490.295 218.098C490.567 217.921 490.644 217.558 490.467 217.286C490.291 217.014 489.927 216.937 489.655 217.113C489.384 217.29 489.306 217.653 489.483 217.925C489.659 218.197 490.023 218.274 490.295 218.098Z" fill="#EFFFFD"/>
<path opacity="0.3" d="M231.012 333.153C231.284 332.976 231.362 332.613 231.185 332.341C231.009 332.069 230.645 331.991 230.373 332.168C230.101 332.344 230.024 332.708 230.2 332.98C230.377 333.252 230.74 333.329 231.012 333.153Z" fill="#EFFFFD"/>
<path d="M327.053 233.02C327.325 232.844 327.403 232.48 327.226 232.208C327.05 231.936 326.686 231.859 326.414 232.035C326.142 232.212 326.065 232.575 326.241 232.847C326.418 233.119 326.781 233.197 327.053 233.02Z" fill="#EFFFFD"/>
<path d="M402.279 182.803C402.551 182.626 402.628 182.263 402.452 181.991C402.275 181.719 401.912 181.641 401.64 181.818C401.368 181.994 401.291 182.358 401.467 182.63C401.643 182.902 402.007 182.979 402.279 182.803Z" fill="#EFFFFD"/>
<path d="M322.967 300.083C323.239 299.906 323.317 299.543 323.14 299.271C322.964 298.999 322.6 298.921 322.328 299.098C322.056 299.274 321.979 299.638 322.155 299.91C322.332 300.182 322.695 300.259 322.967 300.083Z" fill="#EFFFFD"/>
<path opacity="0.3" d="M288.482 322.462C288.754 322.285 288.831 321.922 288.655 321.65C288.478 321.378 288.115 321.301 287.843 321.477C287.571 321.654 287.494 322.017 287.67 322.289C287.847 322.561 288.21 322.638 288.482 322.462Z" fill="#EFFFFD"/>
<path opacity="0.11" d="M228.271 318.132C228.543 317.956 228.62 317.592 228.444 317.32C228.268 317.048 227.904 316.971 227.632 317.147C227.36 317.324 227.283 317.687 227.459 317.959C227.636 318.231 227.999 318.309 228.271 318.132Z" fill="#EFFFFD"/>
<path opacity="0.3" d="M343.599 239.088C343.871 238.911 343.949 238.548 343.772 238.276C343.596 238.004 343.232 237.927 342.96 238.103C342.688 238.28 342.611 238.643 342.787 238.915C342.964 239.187 343.327 239.264 343.599 239.088Z" fill="#EFFFFD"/>
<path opacity="0.3" d="M337.421 304.007C337.693 303.831 337.77 303.467 337.593 303.195C337.417 302.923 337.053 302.846 336.781 303.023C336.51 303.199 336.432 303.563 336.609 303.835C336.785 304.106 337.149 304.184 337.421 304.007Z" fill="#EFFFFD"/>
<path opacity="0.3" d="M281.006 347.617C281.277 347.44 281.355 347.077 281.178 346.805C281.002 346.533 280.638 346.455 280.366 346.632C280.094 346.808 280.017 347.172 280.194 347.444C280.37 347.716 280.734 347.793 281.006 347.617Z" fill="#EFFFFD"/>
<path opacity="0.3" d="M245.302 323.883C245.574 323.707 245.652 323.343 245.475 323.072C245.299 322.8 244.935 322.722 244.663 322.899C244.391 323.075 244.314 323.439 244.49 323.711C244.667 323.983 245.03 324.06 245.302 323.883Z" fill="#EFFFFD"/>
<path opacity="0.3" d="M550.756 123.555C551.027 123.378 551.105 123.015 550.928 122.743C550.752 122.471 550.388 122.393 550.116 122.57C549.844 122.746 549.767 123.11 549.944 123.382C550.12 123.654 550.484 123.731 550.756 123.555Z" fill="#EFFFFD"/>
<path opacity="0.11" d="M458.334 154.827C458.606 154.651 458.683 154.287 458.507 154.015C458.33 153.743 457.966 153.666 457.695 153.842C457.423 154.019 457.345 154.382 457.522 154.654C457.698 154.926 458.062 155.004 458.334 154.827Z" fill="#EFFFFD"/>
<path opacity="0.11" d="M551.201 153.368C551.473 153.191 551.55 152.828 551.374 152.556C551.197 152.284 550.834 152.207 550.562 152.383C550.29 152.559 550.212 152.923 550.389 153.195C550.565 153.467 550.929 153.544 551.201 153.368Z" fill="#EFFFFD"/>
<path opacity="0.3" d="M429.443 238.687C429.987 238.334 430.142 237.606 429.789 237.062C429.435 236.517 428.708 236.362 428.163 236.716C427.619 237.069 427.464 237.797 427.817 238.341C428.171 238.885 428.898 239.04 429.443 238.687Z" fill="#EFFFFD"/>
<path opacity="0.11" d="M448.919 205.045C449.464 204.692 449.618 203.964 449.265 203.42C448.912 202.876 448.184 202.721 447.64 203.074C447.096 203.427 446.941 204.155 447.294 204.699C447.647 205.244 448.375 205.399 448.919 205.045Z" fill="#EFFFFD"/>
<path d="M437.486 187.963C437.894 187.698 438.011 187.152 437.746 186.744C437.481 186.336 436.935 186.22 436.527 186.485C436.119 186.75 436.003 187.295 436.268 187.703C436.533 188.112 437.078 188.228 437.486 187.963Z" fill="#EFFFFD"/>
<path d="M437.064 261.747C437.473 261.483 437.589 260.937 437.324 260.529C437.059 260.121 436.513 260.005 436.105 260.269C435.697 260.534 435.581 261.08 435.846 261.488C436.111 261.896 436.656 262.012 437.064 261.747Z" fill="#EFFFFD"/>
<path d="M607.009 165.462C607.417 165.197 607.533 164.651 607.268 164.243C607.003 163.835 606.458 163.719 606.05 163.984C605.641 164.249 605.525 164.794 605.79 165.202C606.055 165.61 606.601 165.727 607.009 165.462Z" fill="#EFFFFD"/>
<path d="M281.854 364.569C282.262 364.304 282.378 363.759 282.113 363.351C281.848 362.942 281.302 362.826 280.894 363.091C280.486 363.356 280.37 363.902 280.635 364.31C280.9 364.718 281.445 364.834 281.854 364.569Z" fill="#EFFFFD"/>
<path d="M208.986 395.757C209.394 395.492 209.511 394.947 209.246 394.538C208.981 394.13 208.435 394.014 208.027 394.279C207.619 394.544 207.503 395.089 207.768 395.498C208.033 395.906 208.578 396.022 208.986 395.757Z" fill="#EFFFFD"/>
<path d="M187.821 381.487C188.229 381.222 188.346 380.676 188.081 380.268C187.816 379.86 187.27 379.744 186.862 380.009C186.454 380.274 186.338 380.819 186.603 381.228C186.868 381.636 187.413 381.752 187.821 381.487Z" fill="#EFFFFD"/>
<path d="M420.236 213.161C420.644 212.896 420.761 212.351 420.496 211.943C420.231 211.534 419.685 211.418 419.277 211.683C418.869 211.948 418.753 212.494 419.018 212.902C419.283 213.31 419.828 213.426 420.236 213.161Z" fill="#EFFFFD"/>
<path d="M358.173 305.241C358.581 304.977 358.697 304.431 358.432 304.023C358.167 303.615 357.622 303.499 357.214 303.763C356.805 304.028 356.689 304.574 356.954 304.982C357.219 305.39 357.765 305.506 358.173 305.241Z" fill="#EFFFFD"/>
<path d="M496.064 245.862C496.473 245.597 496.589 245.052 496.324 244.644C496.059 244.236 495.513 244.119 495.105 244.384C494.697 244.649 494.581 245.195 494.846 245.603C495.111 246.011 495.656 246.127 496.064 245.862Z" fill="#EFFFFD"/>
<path d="M604.869 127.643C605.277 127.379 605.393 126.833 605.129 126.425C604.864 126.017 604.318 125.9 603.91 126.165C603.502 126.43 603.386 126.976 603.65 127.384C603.915 127.792 604.461 127.908 604.869 127.643Z" fill="#EFFFFD"/>
<path d="M599.111 92.8777C599.519 92.6129 599.636 92.0673 599.371 91.6591C599.106 91.251 598.56 91.1348 598.152 91.3997C597.744 91.6646 597.628 92.2101 597.893 92.6183C598.158 93.0264 598.703 93.1426 599.111 92.8777Z" fill="#EFFFFD"/>
<path opacity="0.3" d="M478.45 162.079C478.995 161.725 479.15 160.998 478.796 160.453C478.443 159.909 477.716 159.754 477.171 160.107C476.627 160.461 476.472 161.188 476.825 161.733C477.178 162.277 477.906 162.432 478.45 162.079Z" fill="#EFFFFD"/>
<path d="M455.747 127.104C456.292 126.751 456.447 126.023 456.093 125.479C455.74 124.935 455.012 124.78 454.468 125.133C453.924 125.486 453.769 126.214 454.122 126.758C454.475 127.303 455.203 127.458 455.747 127.104Z" fill="#EFFFFD"/>
<path d="M510.853 156.453C511.261 156.189 511.377 155.643 511.112 155.235C510.847 154.827 510.301 154.711 509.893 154.975C509.485 155.24 509.369 155.786 509.634 156.194C509.899 156.602 510.444 156.718 510.853 156.453Z" fill="#EFFFFD"/>
<path opacity="0.3" d="M522.279 121.735C522.823 121.382 522.978 120.654 522.625 120.11C522.271 119.565 521.544 119.411 520.999 119.764C520.455 120.117 520.3 120.845 520.653 121.389C521.007 121.933 521.734 122.088 522.279 121.735Z" fill="#EFFFFD"/>
<path opacity="0.3" d="M593.747 125.062C594.292 124.709 594.447 123.981 594.093 123.437C593.74 122.893 593.012 122.738 592.468 123.091C591.924 123.444 591.769 124.172 592.122 124.716C592.475 125.261 593.203 125.416 593.747 125.062Z" fill="#EFFFFD"/>
<path opacity="0.3" d="M536.747 163.451C537.292 163.098 537.447 162.37 537.093 161.826C536.74 161.282 536.012 161.127 535.468 161.48C534.924 161.833 534.769 162.561 535.122 163.105C535.475 163.65 536.203 163.804 536.747 163.451Z" fill="#EFFFFD"/>
<path opacity="0.3" d="M259.411 355.33C259.956 354.977 260.111 354.249 259.757 353.705C259.404 353.161 258.676 353.006 258.132 353.359C257.588 353.712 257.433 354.44 257.786 354.984C258.139 355.529 258.867 355.684 259.411 355.33Z" fill="#EFFFFD"/>
<path opacity="0.3" d="M201.919 354.134C202.464 353.78 202.618 353.053 202.265 352.508C201.912 351.964 201.184 351.809 200.64 352.162C200.096 352.516 199.941 353.243 200.294 353.788C200.647 354.332 201.375 354.487 201.919 354.134Z" fill="#EFFFFD"/>
<path opacity="0.11" d="M563.958 123.391C564.503 123.038 564.658 122.31 564.304 121.766C563.951 121.222 563.223 121.067 562.679 121.42C562.135 121.773 561.98 122.501 562.333 123.045C562.686 123.589 563.414 123.744 563.958 123.391Z" fill="#EFFFFD"/>
<path opacity="0.3" d="M261.497 291.668C262.042 291.315 262.197 290.588 261.843 290.043C261.49 289.499 260.762 289.344 260.218 289.697C259.674 290.05 259.519 290.778 259.872 291.322C260.225 291.867 260.953 292.022 261.497 291.668Z" fill="#EFFFFD"/>
<path opacity="0.11" d="M241.802 290.446C242.346 290.093 242.501 289.365 242.148 288.821C241.795 288.276 241.067 288.121 240.523 288.475C239.978 288.828 239.823 289.556 240.177 290.1C240.53 290.644 241.258 290.799 241.802 290.446Z" fill="#EFFFFD"/>
<path opacity="0.3" d="M258.325 324.532C258.87 324.179 259.025 323.451 258.671 322.907C258.318 322.362 257.591 322.207 257.046 322.561C256.502 322.914 256.347 323.642 256.7 324.186C257.053 324.73 257.781 324.885 258.325 324.532Z" fill="#EFFFFD"/>
<path d="M288.791 304.059C289.199 303.794 289.315 303.249 289.05 302.84C288.786 302.432 288.24 302.316 287.832 302.581C287.424 302.846 287.307 303.391 287.572 303.8C287.837 304.208 288.383 304.324 288.791 304.059Z" fill="#EFFFFD"/>
<path opacity="0.11" d="M686.53 154.94C687.074 154.587 687.229 153.859 686.876 153.315C686.522 152.77 685.795 152.615 685.25 152.969C684.706 153.322 684.551 154.05 684.904 154.594C685.258 155.138 685.985 155.293 686.53 154.94Z" fill="#EFFFFD"/>
<path d="M693.244 158.282C693.652 158.017 693.768 157.471 693.504 157.063C693.239 156.655 692.693 156.539 692.285 156.804C691.877 157.068 691.761 157.614 692.025 158.022C692.29 158.43 692.836 158.546 693.244 158.282Z" fill="#EFFFFD"/>
<path d="M702.791 137.388C703.199 137.123 703.315 136.577 703.05 136.169C702.786 135.761 702.24 135.645 701.832 135.91C701.424 136.175 701.307 136.72 701.572 137.128C701.837 137.536 702.383 137.653 702.791 137.388Z" fill="#EFFFFD"/>
<path d="M660.275 163.574C660.683 163.309 660.8 162.764 660.535 162.356C660.27 161.947 659.724 161.831 659.316 162.096C658.908 162.361 658.792 162.907 659.057 163.315C659.322 163.723 659.867 163.839 660.275 163.574Z" fill="#EFFFFD"/>
<path opacity="0.11" d="M643.56 191.223C644.104 190.87 644.259 190.142 643.906 189.598C643.553 189.053 642.825 188.898 642.281 189.252C641.736 189.605 641.581 190.333 641.935 190.877C642.288 191.421 643.015 191.576 643.56 191.223Z" fill="#EFFFFD"/>
<path d="M627.17 186.459C627.442 186.283 627.519 185.919 627.342 185.647C627.166 185.375 626.802 185.298 626.53 185.474C626.259 185.651 626.181 186.014 626.358 186.286C626.534 186.558 626.898 186.636 627.17 186.459Z" fill="#EFFFFD"/>
<path d="M697.513 175.113C697.785 174.936 697.863 174.573 697.686 174.301C697.51 174.029 697.146 173.951 696.874 174.128C696.602 174.304 696.525 174.668 696.701 174.94C696.878 175.212 697.241 175.289 697.513 175.113Z" fill="#EFFFFD"/>
<path d="M804.912 105.42C805.184 105.243 805.261 104.88 805.085 104.608C804.908 104.336 804.545 104.259 804.273 104.435C804.001 104.612 803.923 104.975 804.1 105.247C804.276 105.519 804.64 105.596 804.912 105.42Z" fill="#EFFFFD"/>
<path d="M841.342 43.9694C841.614 43.7929 841.692 43.4294 841.515 43.1574C841.339 42.8855 840.975 42.8081 840.703 42.9846C840.431 43.1611 840.354 43.5246 840.53 43.7965C840.707 44.0685 841.07 44.1459 841.342 43.9694Z" fill="#EFFFFD"/>
<path d="M883.896 67.4629C884.168 67.2864 884.245 66.9229 884.069 66.651C883.893 66.379 883.529 66.3016 883.257 66.4781C882.985 66.6546 882.908 67.0181 883.084 67.2901C883.261 67.562 883.624 67.6394 883.896 67.4629Z" fill="#EFFFFD"/>
<path d="M525.474 269.256C525.746 269.079 525.824 268.716 525.647 268.444C525.471 268.172 525.107 268.094 524.835 268.271C524.563 268.447 524.486 268.811 524.662 269.083C524.839 269.355 525.202 269.432 525.474 269.256Z" fill="#EFFFFD"/>
<path opacity="0.11" d="M500.826 247.448C501.098 247.272 501.175 246.908 500.999 246.636C500.822 246.364 500.459 246.287 500.187 246.463C499.915 246.64 499.837 247.003 500.014 247.275C500.19 247.547 500.554 247.624 500.826 247.448Z" fill="#EFFFFD"/>
<path opacity="0.11" d="M486.999 272.525C487.271 272.349 487.348 271.985 487.172 271.713C486.995 271.441 486.632 271.364 486.36 271.54C486.088 271.717 486.01 272.081 486.187 272.352C486.363 272.624 486.727 272.702 486.999 272.525Z" fill="#EFFFFD"/>
<path opacity="0.11" d="M522.435 291.534C522.707 291.357 522.785 290.994 522.608 290.722C522.432 290.45 522.068 290.372 521.796 290.549C521.524 290.725 521.447 291.089 521.623 291.361C521.8 291.633 522.163 291.71 522.435 291.534Z" fill="#EFFFFD"/>
<path opacity="0.11" d="M626.888 195.74C627.16 195.564 627.238 195.2 627.061 194.928C626.885 194.656 626.521 194.579 626.249 194.755C625.977 194.932 625.9 195.295 626.076 195.567C626.253 195.839 626.616 195.916 626.888 195.74Z" fill="#EFFFFD"/>
<path opacity="0.11" d="M708.037 193.487C708.309 193.31 708.386 192.947 708.21 192.675C708.033 192.403 707.67 192.325 707.398 192.502C707.126 192.678 707.048 193.042 707.225 193.314C707.401 193.586 707.765 193.663 708.037 193.487Z" fill="#EFFFFD"/>
<path opacity="0.11" d="M799.428 127.179C799.7 127.002 799.778 126.639 799.601 126.367C799.425 126.095 799.061 126.017 798.789 126.194C798.517 126.37 798.44 126.734 798.616 127.006C798.793 127.278 799.156 127.355 799.428 127.179Z" fill="#EFFFFD"/>
<path opacity="0.3" d="M540.146 242.233C540.418 242.056 540.495 241.693 540.319 241.421C540.143 241.149 539.779 241.071 539.507 241.248C539.235 241.424 539.158 241.788 539.334 242.06C539.511 242.332 539.874 242.409 540.146 242.233Z" fill="#EFFFFD"/>
<path d="M636.185 142.101C636.457 141.925 636.535 141.561 636.358 141.289C636.182 141.017 635.818 140.94 635.546 141.117C635.274 141.293 635.197 141.657 635.373 141.928C635.55 142.2 635.913 142.278 636.185 142.101Z" fill="#EFFFFD"/>
<path d="M711.412 91.8834C711.684 91.7069 711.761 91.3434 711.585 91.0715C711.408 90.7995 711.045 90.7221 710.773 90.8986C710.501 91.0751 710.423 91.4386 710.6 91.7106C710.776 91.9825 711.14 92.0599 711.412 91.8834Z" fill="#EFFFFD"/>
<path d="M632.099 209.164C632.371 208.987 632.449 208.624 632.272 208.352C632.096 208.08 631.732 208.003 631.46 208.179C631.188 208.356 631.111 208.719 631.287 208.991C631.464 209.263 631.827 209.34 632.099 209.164Z" fill="#EFFFFD"/>
<path opacity="0.3" d="M597.615 231.543C597.887 231.366 597.964 231.003 597.788 230.731C597.611 230.459 597.248 230.381 596.976 230.558C596.704 230.734 596.626 231.098 596.803 231.37C596.979 231.642 597.343 231.719 597.615 231.543Z" fill="#EFFFFD"/>
<path opacity="0.11" d="M537.404 227.212C537.676 227.036 537.753 226.672 537.577 226.4C537.4 226.128 537.037 226.051 536.765 226.227C536.493 226.404 536.416 226.767 536.592 227.039C536.768 227.311 537.132 227.388 537.404 227.212Z" fill="#EFFFFD"/>
<path opacity="0.3" d="M652.732 148.169C653.004 147.992 653.081 147.629 652.905 147.357C652.728 147.085 652.365 147.007 652.093 147.184C651.821 147.36 651.744 147.724 651.92 147.996C652.097 148.268 652.46 148.345 652.732 148.169Z" fill="#EFFFFD"/>
<path opacity="0.3" d="M646.553 213.088C646.825 212.912 646.903 212.548 646.726 212.276C646.55 212.004 646.186 211.927 645.914 212.103C645.642 212.28 645.565 212.643 645.741 212.915C645.918 213.187 646.281 213.265 646.553 213.088Z" fill="#EFFFFD"/>
<path opacity="0.3" d="M590.138 256.697C590.41 256.521 590.488 256.157 590.311 255.885C590.135 255.613 589.771 255.536 589.499 255.712C589.227 255.889 589.15 256.252 589.326 256.524C589.503 256.796 589.866 256.874 590.138 256.697Z" fill="#EFFFFD"/>
<path opacity="0.3" d="M554.435 232.964C554.707 232.787 554.785 232.424 554.608 232.152C554.432 231.88 554.068 231.802 553.796 231.979C553.524 232.155 553.447 232.519 553.623 232.791C553.8 233.063 554.163 233.14 554.435 232.964Z" fill="#EFFFFD"/>
<path opacity="0.3" d="M859.888 32.6359C860.16 32.4594 860.238 32.0959 860.061 31.824C859.885 31.5521 859.521 31.4747 859.249 31.6511C858.977 31.8276 858.9 32.1912 859.076 32.4631C859.253 32.735 859.616 32.8124 859.888 32.6359Z" fill="#EFFFFD"/>
<path opacity="0.11" d="M767.467 63.9072C767.739 63.7307 767.817 63.3671 767.64 63.0952C767.464 62.8232 767.1 62.7459 766.828 62.9223C766.556 63.0988 766.479 63.4623 766.655 63.7343C766.832 64.0062 767.195 64.0836 767.467 63.9072Z" fill="#EFFFFD"/>
<path opacity="0.11" d="M860.334 62.4477C860.606 62.2712 860.683 61.9077 860.506 61.6358C860.33 61.3638 859.966 61.2864 859.695 61.4629C859.423 61.6394 859.345 62.0029 859.522 62.2748C859.698 62.5468 860.062 62.6242 860.334 62.4477Z" fill="#EFFFFD"/>
<path opacity="0.3" d="M738.576 147.767C739.12 147.414 739.275 146.686 738.921 146.142C738.568 145.598 737.841 145.443 737.296 145.796C736.752 146.149 736.597 146.877 736.95 147.421C737.303 147.966 738.031 148.121 738.576 147.767Z" fill="#EFFFFD"/>
<path opacity="0.11" d="M758.052 114.126C758.596 113.773 758.751 113.045 758.398 112.501C758.045 111.957 757.317 111.802 756.773 112.155C756.228 112.508 756.073 113.236 756.427 113.78C756.78 114.324 757.508 114.479 758.052 114.126Z" fill="#EFFFFD"/>
<path d="M746.619 97.0435C747.027 96.7787 747.143 96.2331 746.879 95.8249C746.614 95.4168 746.068 95.3006 745.66 95.5655C745.252 95.8304 745.136 96.3759 745.4 96.7841C745.665 97.1922 746.211 97.3084 746.619 97.0435Z" fill="#EFFFFD"/>
<path d="M746.197 170.828C746.605 170.563 746.721 170.018 746.457 169.61C746.192 169.201 745.646 169.085 745.238 169.35C744.83 169.615 744.714 170.161 744.979 170.569C745.243 170.977 745.789 171.093 746.197 170.828Z" fill="#EFFFFD"/>
<path d="M916.143 74.5425C916.551 74.2776 916.667 73.732 916.402 73.3239C916.137 72.9157 915.591 72.7996 915.183 73.0644C914.775 73.3293 914.659 73.8749 914.924 74.2831C915.189 74.6912 915.734 74.8074 916.143 74.5425Z" fill="#EFFFFD"/>
<path d="M590.986 273.65C591.394 273.385 591.511 272.839 591.246 272.431C590.981 272.023 590.435 271.907 590.027 272.172C589.619 272.437 589.503 272.982 589.768 273.39C590.033 273.799 590.578 273.915 590.986 273.65Z" fill="#EFFFFD"/>
<path d="M518.119 304.838C518.527 304.573 518.643 304.027 518.379 303.619C518.114 303.211 517.568 303.095 517.16 303.36C516.752 303.625 516.636 304.17 516.9 304.578C517.165 304.987 517.711 305.103 518.119 304.838Z" fill="#EFFFFD"/>
<path d="M496.955 290.568C497.363 290.303 497.479 289.757 497.214 289.349C496.95 288.941 496.404 288.825 495.996 289.09C495.588 289.355 495.472 289.9 495.736 290.308C496.001 290.716 496.547 290.833 496.955 290.568Z" fill="#EFFFFD"/>
<path d="M729.369 122.241C729.777 121.976 729.893 121.431 729.629 121.023C729.364 120.614 728.818 120.498 728.41 120.763C728.002 121.028 727.886 121.574 728.151 121.982C728.415 122.39 728.961 122.506 729.369 122.241Z" fill="#EFFFFD"/>
<path d="M667.306 214.322C667.714 214.057 667.83 213.512 667.565 213.104C667.3 212.695 666.755 212.579 666.346 212.844C665.938 213.109 665.822 213.655 666.087 214.063C666.352 214.471 666.897 214.587 667.306 214.322Z" fill="#EFFFFD"/>
<path d="M805.197 154.943C805.605 154.678 805.721 154.133 805.457 153.724C805.192 153.316 804.646 153.2 804.238 153.465C803.83 153.73 803.714 154.275 803.979 154.684C804.243 155.092 804.789 155.208 805.197 154.943Z" fill="#EFFFFD"/>
<path d="M914.002 36.7241C914.41 36.4593 914.526 35.9137 914.261 35.5055C913.996 35.0974 913.451 34.9812 913.043 35.2461C912.635 35.511 912.518 36.0566 912.783 36.4647C913.048 36.8729 913.594 36.989 914.002 36.7241Z" fill="#EFFFFD"/>
<path d="M908.244 1.95762C908.652 1.69275 908.768 1.14717 908.504 0.739017C908.239 0.330868 907.693 0.214709 907.285 0.479582C906.877 0.744455 906.761 1.29004 907.025 1.69819C907.29 2.10634 907.836 2.2225 908.244 1.95762Z" fill="#EFFFFD"/>
<path opacity="0.3" d="M787.576 71.1598C788.12 70.8066 788.275 70.0789 787.921 69.5346C787.568 68.9902 786.841 68.8353 786.296 69.1886C785.752 69.5418 785.597 70.2695 785.95 70.8139C786.303 71.3582 787.031 71.5131 787.576 71.1598Z" fill="#EFFFFD"/>
<path d="M764.88 36.185C765.424 35.8317 765.579 35.104 765.226 34.5597C764.873 34.0153 764.145 33.8604 763.601 34.2137C763.057 34.5669 762.902 35.2946 763.255 35.8389C763.608 36.3833 764.336 36.5382 764.88 36.185Z" fill="#EFFFFD"/>
<path d="M819.986 65.5342C820.394 65.2693 820.511 64.7238 820.246 64.3156C819.981 63.9075 819.435 63.7913 819.027 64.0562C818.619 64.3211 818.503 64.8666 818.768 65.2748C819.033 65.6829 819.578 65.7991 819.986 65.5342Z" fill="#EFFFFD"/>
<path opacity="0.3" d="M831.411 30.8163C831.956 30.4631 832.111 29.7354 831.757 29.1911C831.404 28.6467 830.676 28.4918 830.132 28.845C829.588 29.1983 829.433 29.926 829.786 30.4703C830.139 31.0147 830.867 31.1696 831.411 30.8163Z" fill="#EFFFFD"/>
<path opacity="0.3" d="M902.881 34.1432C903.425 33.7899 903.58 33.0622 903.227 32.5179C902.874 31.9735 902.146 31.8186 901.602 32.1719C901.057 32.5251 900.903 33.2528 901.256 33.7971C901.609 34.3415 902.337 34.4964 902.881 34.1432Z" fill="#EFFFFD"/>
<path opacity="0.3" d="M845.88 72.5319C846.424 72.1786 846.579 71.451 846.226 70.9066C845.873 70.3623 845.145 70.2073 844.601 70.5606C844.057 70.9139 843.902 71.6415 844.255 72.1859C844.608 72.7302 845.336 72.8851 845.88 72.5319Z" fill="#EFFFFD"/>
<path opacity="0.3" d="M568.544 264.411C569.089 264.058 569.243 263.33 568.89 262.786C568.537 262.242 567.809 262.087 567.265 262.44C566.721 262.793 566.566 263.521 566.919 264.065C567.272 264.61 568 264.764 568.544 264.411Z" fill="#EFFFFD"/>
<path opacity="0.3" d="M511.052 263.214C511.596 262.861 511.751 262.133 511.398 261.589C511.045 261.045 510.317 260.89 509.773 261.243C509.228 261.596 509.073 262.324 509.427 262.868C509.78 263.413 510.508 263.568 511.052 263.214Z" fill="#EFFFFD"/>
<path opacity="0.11" d="M873.091 32.4719C873.635 32.1186 873.79 31.3909 873.437 30.8466C873.084 30.3022 872.356 30.1473 871.812 30.5006C871.267 30.8538 871.113 31.5815 871.466 32.1259C871.819 32.6702 872.547 32.8251 873.091 32.4719Z" fill="#EFFFFD"/>
<path opacity="0.3" d="M570.63 200.748C571.175 200.395 571.329 199.667 570.976 199.123C570.623 198.579 569.895 198.424 569.351 198.777C568.807 199.13 568.652 199.858 569.005 200.402C569.358 200.947 570.086 201.102 570.63 200.748Z" fill="#EFFFFD"/>
<path opacity="0.11" d="M550.935 199.528C551.479 199.174 551.634 198.447 551.281 197.902C550.928 197.358 550.2 197.203 549.656 197.556C549.111 197.91 548.956 198.637 549.31 199.182C549.663 199.726 550.391 199.881 550.935 199.528Z" fill="#EFFFFD"/>
<path opacity="0.3" d="M567.458 233.612C568.003 233.259 568.158 232.531 567.804 231.987C567.451 231.442 566.723 231.287 566.179 231.641C565.635 231.994 565.48 232.721 565.833 233.266C566.186 233.81 566.914 233.965 567.458 233.612Z" fill="#EFFFFD"/>
<path d="M597.923 213.139C598.331 212.874 598.447 212.329 598.182 211.921C597.917 211.512 597.372 211.396 596.964 211.661C596.556 211.926 596.439 212.472 596.704 212.88C596.969 213.288 597.515 213.404 597.923 213.139Z" fill="#EFFFFD"/>
</g>
<g clip-path="url(#clip0_72_26808)">
<rect y="-360" width="1024" height="600" fill="url(#paint0_radial_72_26808)" fill-opacity="0.4"/>
</g>
<defs>
<radialGradient id="paint0_radial_72_26808" cx="0" cy="0" r="1" gradientUnits="userSpaceOnUse" gradientTransform="translate(512 -60) rotate(30.3676) scale(593.417 517.68)">
<stop stop-color="#5DC5B1" stop-opacity="0.8"/>
<stop offset="0.635417" stop-opacity="0"/>
</radialGradient>
<clipPath id="clip0_72_26808">
<rect width="1024" height="300" fill="white"/>
</clipPath>
</defs>
</svg>
