<svg width="32" height="32" viewBox="0 0 240 240" fill="none" xmlns="http://www.w3.org/2000/svg">
  <g filter="url(#filter0_f_8_2353)">
    <path d="M135.947 30.9925C143.635 85.0484 89.7859 100.925 65.9474 123.914C6.1353 181.596 103.502 252.773 169.635 203.548C259.65 136.548 129.129 -16.9517 135.947 30.9925Z" fill="url(#paint0_radial_8_2353)"/>
    <path d="M60.9473 99.9403C60.9473 129.874 96.0243 117.874 116.947 159.44C141.723 208.661 96.4199 231.006 60.9473 195.048C10.6353 144.048 60.9473 62.387 60.9473 99.9403Z" fill="url(#paint1_radial_8_2353)"/>
    <path d="M111.024 63.374C101.978 115.84 150.123 124.441 172.089 140.701C229.203 182.978 133.558 235.137 82.0243 195.374C53.5458 173.4 54.3572 136.189 66.0243 104.874C83.7386 57.3275 116.024 34.374 111.024 63.374Z" fill="url(#paint2_radial_8_2353)"/>
    <path d="M141.734 76.5218C143.746 114.186 110.884 134.11 97.7337 144.522C50.0831 182.249 120.675 234.558 172.234 197.522C223.792 160.486 139.219 29.4418 141.734 76.5218Z" fill="url(#paint3_radial_8_2353)"/>
  </g>
  <path d="M135.587 29.1608C143.269 83.7164 89.4639 99.7397 65.6449 122.942C5.88188 181.156 103.168 252.992 169.248 203.312C259.189 135.692 128.774 -19.2267 135.587 29.1608Z" fill="url(#paint4_radial_8_2353)"/>
  <path d="M60.9473 99.9403C60.9473 129.874 96.0243 117.874 116.947 159.44C141.723 208.661 96.4199 231.006 60.9473 195.048C10.6353 144.048 60.9473 62.387 60.9473 99.9403Z" fill="url(#paint5_radial_8_2353)"/>
  <path d="M111.024 63.374C101.978 115.84 150.123 124.441 172.089 140.701C229.203 182.978 133.558 235.137 82.0243 195.374C53.5458 173.4 54.3572 136.189 66.0243 104.874C83.7386 57.3275 116.024 34.374 111.024 63.374Z" fill="url(#paint6_radial_8_2353)"/>
  <path d="M141.734 76.5218C143.746 114.186 110.884 134.11 97.7337 144.522C50.0831 182.249 120.675 234.558 172.234 197.522C223.792 160.486 139.219 29.4418 141.734 76.5218Z" fill="url(#paint7_radial_8_2353)"/>
  <g filter="url(#filter1_d_8_2353)">
    <ellipse cx="98" cy="180" rx="20" ry="22" transform="rotate(-12 98 180)" fill="white" fill-opacity="0.4"/>
    <g filter="url(#filter2_i_8_2353)">
      <ellipse cx="97.71" cy="179.741" rx="16" ry="17.5" transform="rotate(-12 97.71 179.741)" fill="#089276"/>
    </g>
    <circle r="8" transform="matrix(0.978148 -0.207912 -0.207912 -0.978148 94.5051 169.262)" fill="#B3FFF0"/>
  </g>
  <g filter="url(#filter3_d_8_2353)">
    <ellipse cx="144" cy="180" rx="20" ry="22" transform="rotate(12 144 180)" fill="white" fill-opacity="0.4"/>
    <g filter="url(#filter4_i_8_2353)">
      <ellipse cx="144.334" cy="179.325" rx="16" ry="17.5" transform="rotate(12 144.334 179.325)" fill="#089276"/>
    </g>
    <path d="M155.32 170.925C156.239 166.604 153.48 162.356 149.158 161.437C144.837 160.518 140.588 163.277 139.67 167.599C138.751 171.921 141.51 176.169 145.832 177.087C150.153 178.006 154.402 175.247 155.32 170.925Z" fill="#B3FFF0"/>
    </g>
  <defs>
    <filter id="filter0_f_8_2353" x="34.5864" y="17.874" width="170.827" height="206.168" filterUnits="userSpaceOnUse" color-interpolation-filters="sRGB">
      <feFlood flood-opacity="0" result="BackgroundImageFix"/>
      <feBlend mode="normal" in="SourceGraphic" in2="BackgroundImageFix" result="shape"/>
      <feGaussianBlur stdDeviation="2" result="effect1_foregroundBlur_8_2353"/>
    </filter>
    <filter id="filter1_d_8_2353" x="73.9049" y="154.078" width="48.1902" height="51.8428" filterUnits="userSpaceOnUse" color-interpolation-filters="sRGB">
      <feFlood flood-opacity="0" result="BackgroundImageFix"/>
      <feColorMatrix in="SourceAlpha" type="matrix" values="0 0 0 0 0 0 0 0 0 0 0 0 0 0 0 0 0 0 127 0" result="hardAlpha"/>
      <feOffset/>
      <feGaussianBlur stdDeviation="2"/>
      <feComposite in2="hardAlpha" operator="out"/>
      <feColorMatrix type="matrix" values="0 0 0 0 0.0313726 0 0 0 0 0.572549 0 0 0 0 0.462745 0 0 0 0.2 0"/>
      <feBlend mode="normal" in2="BackgroundImageFix" result="effect1_dropShadow_8_2353"/>
      <feBlend mode="normal" in="SourceGraphic" in2="effect1_dropShadow_8_2353" result="shape"/>
    </filter>
    <filter id="filter2_i_8_2353" x="81.6386" y="160.299" width="32.1426" height="36.8822" filterUnits="userSpaceOnUse" color-interpolation-filters="sRGB">
      <feFlood flood-opacity="0" result="BackgroundImageFix"/>
      <feBlend mode="normal" in="SourceGraphic" in2="BackgroundImageFix" result="shape"/>
      <feColorMatrix in="SourceAlpha" type="matrix" values="0 0 0 0 0 0 0 0 0 0 0 0 0 0 0 0 0 0 127 0" result="hardAlpha"/>
      <feOffset dy="-2"/>
      <feGaussianBlur stdDeviation="4"/>
      <feComposite in2="hardAlpha" operator="arithmetic" k2="-1" k3="1"/>
      <feColorMatrix type="matrix" values="0 0 0 0 0 0 0 0 0 0 0 0 0 0 0 0 0 0 0.25 0"/>
      <feBlend mode="normal" in2="shape" result="effect1_innerShadow_8_2353"/>
    </filter>
    <filter id="filter3_d_8_2353" x="119.905" y="154.079" width="48.1902" height="51.8428" filterUnits="userSpaceOnUse" color-interpolation-filters="sRGB">
      <feFlood flood-opacity="0" result="BackgroundImageFix"/>
      <feColorMatrix in="SourceAlpha" type="matrix" values="0 0 0 0 0 0 0 0 0 0 0 0 0 0 0 0 0 0 127 0" result="hardAlpha"/>
      <feOffset/>
      <feGaussianBlur stdDeviation="2"/>
      <feComposite in2="hardAlpha" operator="out"/>
      <feColorMatrix type="matrix" values="0 0 0 0 0.0313726 0 0 0 0 0.572549 0 0 0 0 0.462745 0 0 0 0.2 0"/>
      <feBlend mode="normal" in2="BackgroundImageFix" result="effect1_dropShadow_8_2353"/>
      <feBlend mode="normal" in="SourceGraphic" in2="effect1_dropShadow_8_2353" result="shape"/>
    </filter>
    <filter id="filter4_i_8_2353" x="128.262" y="159.884" width="32.1426" height="36.8822" filterUnits="userSpaceOnUse" color-interpolation-filters="sRGB">
      <feFlood flood-opacity="0" result="BackgroundImageFix"/>
      <feBlend mode="normal" in="SourceGraphic" in2="BackgroundImageFix" result="shape"/>
      <feColorMatrix in="SourceAlpha" type="matrix" values="0 0 0 0 0 0 0 0 0 0 0 0 0 0 0 0 0 0 127 0" result="hardAlpha"/>
      <feOffset dy="-2"/>
      <feGaussianBlur stdDeviation="4"/>
      <feComposite in2="hardAlpha" operator="arithmetic" k2="-1" k3="1"/>
      <feColorMatrix type="matrix" values="0 0 0 0 0 0 0 0 0 0 0 0 0 0 0 0 0 0 0.25 0"/>
      <feBlend mode="normal" in2="shape" result="effect1_innerShadow_8_2353"/>
    </filter>
    <radialGradient id="paint0_radial_8_2353" cx="0" cy="0" r="1" gradientUnits="userSpaceOnUse" gradientTransform="translate(143.383 31.3287) rotate(68.9173) scale(146.341 106.397)">
      <stop stop-color="#29FFF0"/>
      <stop offset="0.489654" stop-color="#12E8CF"/>
      <stop offset="0.922128" stop-color="#17F7DE"/>
    </radialGradient>
    <radialGradient id="paint1_radial_8_2353" cx="0" cy="0" r="1" gradientUnits="userSpaceOnUse" gradientTransform="translate(55.9473 87.9405) rotate(83.1872) scale(113.804 82.8856)">
      <stop stop-color="#1FF5E6"/>
      <stop offset="0.321912" stop-color="#12E8CF"/>
      <stop offset="0.764994" stop-color="#17F7DE"/>
    </radialGradient>
    <radialGradient id="paint2_radial_8_2353" cx="0" cy="0" r="1" gradientUnits="userSpaceOnUse" gradientTransform="translate(101.78 60.2564) rotate(110.975) scale(115.254 90.7462)">
      <stop stop-color="#31FFF6"/>
      <stop offset="0.130208" stop-color="#69FFEE"/>
      <stop offset="0.80544" stop-color="#17F7DE"/>
    </radialGradient>
    <radialGradient id="paint3_radial_8_2353" cx="0" cy="0" r="1" gradientUnits="userSpaceOnUse" gradientTransform="translate(153.947 74.9404) rotate(97.7935) scale(136.506 101.591)">
      <stop stop-color="#29FFF0"/>
      <stop offset="0.207287" stop-color="#69FFEE"/>
      <stop offset="0.892343" stop-color="#17F7DE"/>
    </radialGradient>
    <radialGradient id="paint4_radial_8_2353" cx="0" cy="0" r="1" gradientUnits="userSpaceOnUse" gradientTransform="translate(150.647 31.7845) rotate(98.06) scale(190.051 146.15)">
      <stop offset="0.255208" stop-color="#19D4AF"/>
      <stop offset="0.8125" stop-color="#80FFE6"/>
    </radialGradient>
    <radialGradient id="paint5_radial_8_2353" cx="0" cy="0" r="1" gradientUnits="userSpaceOnUse" gradientTransform="translate(53 95.5) rotate(77.8191) scale(116.114 81.2674)">
      <stop stop-color="#15D5A7"/>
      <stop offset="0.652791" stop-color="#80FFE6"/>
    </radialGradient>
    <radialGradient id="paint6_radial_8_2353" cx="0" cy="0" r="1" gradientUnits="userSpaceOnUse" gradientTransform="translate(101.341 59.9627) rotate(81.3648) scale(151.304 124.412)">
      <stop stop-color="#28E7C1"/>
      <stop offset="0.706406" stop-color="#7FFFE5"/>
    </radialGradient>
    <radialGradient id="paint7_radial_8_2353" cx="0" cy="0" r="1" gradientUnits="userSpaceOnUse" gradientTransform="translate(153.947 74.9404) rotate(97.7935) scale(136.506 101.591)">
      <stop stop-color="#6BFFEA"/>
      <stop offset="0.892343" stop-color="#7FFFE5"/>
    </radialGradient>
  </defs>
</svg>
