<?xml version="1.0" encoding="UTF-8"?> <svg xmlns="http://www.w3.org/2000/svg" width="118" height="32" viewBox="0 0 118 32" fill="none"> <g clip-path="url(#clip0_404_27005)"> <path d="M25.0274 15.207C24.9135 14.9644 24.6665 14.8074 24.3956 14.8093L18.443 14.8154C17.7262 14.816 17.5064 14.3592 17.9541 13.7995L20.7583 10.2975C20.9153 10.1017 20.9455 9.79198 20.8316 9.55125C20.7176 9.30805 20.4701 9.15166 20.1998 9.15351L12.092 9.17937C11.6455 9.1806 11.3721 8.82842 11.4848 8.39621L13.4467 0.885985C13.5372 0.548585 13.3568 0.215495 13.0686 0.0781958C12.8703 -0.0270876 12.6492 -0.0227778 12.4448 0.0714232C12.3438 0.118832 12.2705 0.176707 12.1893 0.264751L0.145489 15.3357C-0.0115319 15.5315 -0.0497095 15.8196 0.0728281 16.0819C0.186745 16.3245 0.433667 16.4815 0.704605 16.4796L6.65722 16.4735C7.37397 16.4729 7.5938 16.9297 7.14614 17.4894L4.34194 20.9914C4.18492 21.1872 4.15474 21.4969 4.26866 21.7377C4.38258 21.9809 4.63012 22.1372 4.90044 22.1354L13.0082 22.1095C13.4547 22.1083 13.7281 22.4605 13.6154 22.8927L11.6536 30.4029C11.563 30.7403 11.7435 31.0734 12.0316 31.2107C12.2299 31.316 12.451 31.3117 12.6554 31.2175C12.7564 31.1701 12.8297 31.1122 12.9109 31.0241L24.9547 15.9532C25.1117 15.7574 25.1499 15.4693 25.0274 15.207Z" fill="#3FE8BD"></path> </g> <g clip-path="url(#clip1_404_27005)"> <path d="M35.0507 22.1691C33.8808 22.1691 32.8609 21.9877 31.9936 21.6241C31.1262 21.2604 30.4493 20.719 29.9653 19.999C29.4805 19.2789 29.2255 18.3873 29.1995 17.3243H32.1642C32.2028 17.8127 32.3464 18.2239 32.5933 18.5579C32.8402 18.8919 33.1715 19.1406 33.5881 19.3058C34.0039 19.471 34.4824 19.5536 35.022 19.5536C35.5616 19.5536 35.9953 19.4782 36.3823 19.3256C36.7692 19.1738 37.0682 18.9611 37.2792 18.6863C37.4902 18.4125 37.5961 18.0937 37.5961 17.7301C37.5961 17.3997 37.5001 17.1223 37.3088 16.8978C37.1167 16.6733 36.8375 16.4821 36.4702 16.3232C36.103 16.1643 35.6559 16.0224 35.1289 15.8967L33.5388 15.5007C32.3159 15.2036 31.3507 14.7295 30.6423 14.0786C29.9339 13.4276 29.5793 12.5576 29.5793 11.4676C29.5793 10.576 29.8181 9.79491 30.2957 9.12422C30.7734 8.45353 31.427 7.93188 32.2557 7.55837C33.0863 7.18666 34.0299 6.99991 35.0903 6.99991C36.1506 6.99991 37.1104 7.18846 37.914 7.56466C38.7167 7.94085 39.3443 8.4634 39.7959 9.1305C40.2475 9.79761 40.48 10.5671 40.4935 11.4389H37.5387C37.4866 10.8643 37.2442 10.4153 36.8123 10.0912C36.3796 9.76798 35.796 9.60547 35.0615 9.60547C34.5677 9.60547 34.1466 9.6764 33.7982 9.81826C33.4499 9.96012 33.185 10.1567 33.0036 10.4081C32.8214 10.6595 32.7307 10.9469 32.7307 11.2701C32.7307 11.614 32.8349 11.9031 33.0432 12.1374C33.2515 12.3717 33.5289 12.5639 33.8773 12.712C34.2247 12.8611 34.6072 12.9841 35.0229 13.0837L36.3203 13.4106C36.9506 13.556 37.5324 13.749 38.0657 13.9906C38.599 14.2321 39.0623 14.5275 39.4556 14.8776C39.8489 15.2278 40.1532 15.639 40.3678 16.1113C40.5824 16.5836 40.6892 17.1267 40.6892 17.7409C40.6892 18.6459 40.4666 19.4297 40.0212 20.0941C39.5759 20.7577 38.9339 21.2703 38.0954 21.6295C37.2568 21.9895 36.2422 22.1691 35.0525 22.1691H35.0507Z" fill="white"></path> <path d="M43.7599 21.9595L40.7952 10.8827H43.8577L45.5448 18.3331H45.6427L47.4078 10.8827H50.4022L52.1871 18.2837H52.2849L53.9433 10.8827H56.996L54.0313 21.9595H50.8421L48.9692 14.994H48.8327L46.9598 21.9595H43.7608H43.7599Z" fill="white"></path> <path d="M60.2026 22.1684C59.5131 22.1684 58.8945 22.0445 58.345 21.7967C57.7955 21.5489 57.3645 21.1808 57.053 20.6924C56.7405 20.2039 56.5852 19.5961 56.5852 18.8697C56.5852 18.2493 56.6956 17.7322 56.9165 17.3192C57.1374 16.9061 57.44 16.5712 57.8233 16.3136C58.2067 16.0559 58.6422 15.861 59.1306 15.7291C59.6181 15.5971 60.1353 15.5046 60.6812 15.4516C61.3115 15.3924 61.8188 15.3331 62.203 15.273C62.5864 15.2137 62.8675 15.123 63.047 15.0009C63.2257 14.8788 63.3155 14.7019 63.3155 14.4712V14.4218C63.3155 13.9657 63.1736 13.6128 62.8908 13.3614C62.608 13.1109 62.2093 12.9852 61.6958 12.9852C61.1562 12.9852 60.7252 13.1055 60.4038 13.3471C60.0823 13.5886 59.8686 13.8939 59.7654 14.2638L56.9668 14.0357C57.1095 13.3623 57.3897 12.7787 57.8054 12.2867C58.2211 11.7947 58.7598 11.4149 59.4197 11.1473C60.0796 10.8798 60.8455 10.746 61.7164 10.746C62.3207 10.746 62.8998 10.8187 63.452 10.9642C64.0041 11.1096 64.4971 11.3323 64.9298 11.6331C65.3617 11.9339 65.7056 12.3217 65.9588 12.7976C66.2119 13.2734 66.3394 13.8382 66.3394 14.4918V21.9619H63.4627V20.4167H63.3846C63.2086 20.7669 62.9752 21.0722 62.6825 21.3334C62.3898 21.5947 62.0387 21.7994 61.6293 21.9476C61.2199 22.0957 60.7449 22.1702 60.2053 22.1702L60.2026 22.1684ZM61.0709 20.0477C61.5126 20.0477 61.905 19.957 62.2461 19.7757C62.5873 19.5943 62.854 19.3492 63.0461 19.0421C63.2383 18.7351 63.3334 18.3903 63.3334 18.0069V16.828C63.2419 16.8873 63.1144 16.9439 62.9483 16.9968C62.7822 17.0498 62.599 17.0956 62.397 17.1351C62.195 17.1746 61.9938 17.2096 61.7927 17.2392C61.5907 17.2689 61.4094 17.2976 61.2468 17.3236C60.8895 17.3766 60.577 17.461 60.3104 17.5759C60.0437 17.6918 59.8372 17.8471 59.6909 18.0419C59.5445 18.2368 59.4718 18.4792 59.4718 18.7701C59.4718 19.1858 59.6217 19.5036 59.9207 19.7209C60.2197 19.9391 60.6031 20.0477 61.0718 20.0477H61.0709Z" fill="white"></path> <path d="M68.8662 26.1013C68.4829 26.1075 68.1237 26.0815 67.7888 26.0223C67.4539 25.963 67.1792 25.8867 66.9646 25.7942L67.647 23.5056L67.7448 23.5253C68.2521 23.6771 68.6858 23.7121 69.0467 23.6295C69.4076 23.5469 69.6824 23.2542 69.8709 22.7523L70.0469 22.2764L66.1458 10.8827H69.3152L71.5679 19.0172H71.6846L73.9669 10.8827H77.1561L72.9236 23.1581C72.7216 23.7525 72.4469 24.2714 72.0994 24.7132C71.751 25.1558 71.3147 25.4979 70.7876 25.7385C70.2606 25.9792 69.6204 26.1004 68.8662 26.1004V26.1013Z" fill="white"></path> <path d="M80.4646 7.19815V21.9606H77.4514V7.19815H80.4646Z" fill="white"></path> <path d="M86.722 22.1782C85.6033 22.1782 84.6381 21.9474 83.8256 21.485C83.013 21.0226 82.3899 20.3636 81.9581 19.508C81.5253 18.6523 81.3098 17.6404 81.3098 16.4714C81.3098 15.3024 81.5262 14.3381 81.9581 13.4789C82.3908 12.6206 83.0014 11.9499 83.7915 11.4677C84.5816 10.9856 85.5091 10.744 86.5757 10.744C87.2976 10.744 87.9701 10.8617 88.5941 11.096C89.2181 11.3303 89.7649 11.6805 90.2326 12.1465C90.7004 12.6125 91.0649 13.197 91.3253 13.9C91.5857 14.603 91.7159 15.4272 91.7159 16.3718V17.2041H82.5093V15.3114H90.2533L88.8491 15.807C88.8491 15.2459 88.7647 14.7565 88.5959 14.3408C88.4271 13.9251 88.1748 13.6028 87.8399 13.3747C87.505 13.1467 87.0902 13.0327 86.5964 13.0327C86.1025 13.0327 85.6841 13.1485 85.343 13.3792C85.0018 13.6109 84.7396 13.9242 84.5582 14.3202C84.376 14.7161 84.2853 15.1722 84.2853 15.6876V17.0254C84.2853 17.627 84.3894 18.1396 84.5977 18.5661C84.806 18.9926 85.0969 19.3194 85.4704 19.5466C85.8439 19.7746 86.2749 19.8886 86.7625 19.8886C87.1 19.8886 87.4062 19.8393 87.6792 19.7396C87.9521 19.6399 88.1882 19.4954 88.3867 19.3041C88.5851 19.1129 88.7332 18.8813 88.8302 18.611L91.6198 18.7996C91.4833 19.4801 91.1987 20.0727 90.7669 20.5782C90.3341 21.0837 89.7765 21.4769 89.0942 21.7571C88.4118 22.0372 87.6217 22.1782 86.7238 22.1782H86.722Z" fill="white"></path> <path d="M95.5691 15.5593V21.9601H92.5559V10.8833H95.5206V12.855H95.6274C95.8744 12.2013 96.2676 11.686 96.8072 11.3098C97.3468 10.9336 98.0229 10.745 98.8355 10.745C99.5897 10.745 100.248 10.9138 100.811 11.2505C101.373 11.5872 101.81 12.0667 102.122 12.6871C102.435 13.3084 102.59 14.0509 102.59 14.9164V21.961H99.5771V15.4614C99.5771 14.788 99.4047 14.2574 99.0599 13.8713C98.7152 13.4853 98.2411 13.2913 97.6359 13.2913C97.2328 13.2913 96.8755 13.382 96.563 13.5634C96.2506 13.7447 96.0072 14.0042 95.8313 14.3409C95.6553 14.6776 95.5682 15.0843 95.5682 15.5593H95.5691Z" fill="white"></path> <path d="M107.809 22.1393C106.977 22.1393 106.226 21.9211 105.557 21.4856C104.887 21.0493 104.357 20.4073 103.967 19.5588C103.577 18.7104 103.381 17.6716 103.381 16.4424C103.381 15.2133 103.582 14.1179 103.985 13.2721C104.388 12.4263 104.925 11.7942 105.594 11.3749C106.264 10.9556 106.995 10.7456 107.789 10.7456C108.4 10.7456 108.91 10.8497 109.319 11.058C109.729 11.2663 110.061 11.5258 110.314 11.8355C110.567 12.1462 110.76 12.4533 110.89 12.7567H110.978V7.19815H114.001V21.9606H111.026V20.1873H110.89C110.753 20.4908 110.555 20.7934 110.295 21.0942C110.034 21.3949 109.701 21.6436 109.295 21.8421C108.889 22.0405 108.393 22.1393 107.808 22.1393H107.809ZM108.756 19.7016C109.243 19.7016 109.658 19.5642 109.999 19.2904C110.34 19.0165 110.601 18.635 110.779 18.1456C110.958 17.6572 111.048 17.0853 111.048 16.4316C111.048 15.778 110.96 15.198 110.785 14.7123C110.61 14.2265 110.349 13.8503 110.005 13.5828C109.66 13.3152 109.244 13.1814 108.757 13.1814C108.269 13.1814 107.846 13.3197 107.509 13.5971C107.17 13.8746 106.913 14.2561 106.738 14.7419C106.562 15.2276 106.475 15.7906 106.475 16.4307C106.475 17.0709 106.563 17.6383 106.738 18.1304C106.914 18.6224 107.172 19.0076 107.514 19.285C107.855 19.5624 108.27 19.7007 108.757 19.7007L108.756 19.7016Z" fill="white"></path> </g> <defs> <clipPath id="clip0_404_27005"> <rect width="25.0999" height="31.2889" fill="white"></rect> </clipPath> <clipPath id="clip1_404_27005"> <rect width="88" height="23" fill="white" transform="translate(29.0999 4.14444)"></rect> </clipPath> </defs> </svg> 